{"glyphs":{"0":{"ha":960,"x_min":121,"x_max":839,"o":"m 121 893 q 181 1061 121 1008 q 368 1114 242 1114 l 592 1114 q 778 1061 717 1114 q 839 893 839 1008 l 839 207 q 778 40 839 93 q 592 -12 717 -12 l 368 -12 q 181 40 242 -12 q 121 207 121 93 l 121 893 m 318 957 q 299 939 299 957 l 299 163 q 318 144 299 144 l 642 144 q 661 163 661 144 l 661 939 q 642 957 661 957 l 318 957 z "},"1":{"ha":751,"x_min":39,"x_max":708,"o":"m 708 0 l 96 0 l 96 142 l 342 142 l 342 917 l 111 776 l 39 897 l 356 1101 l 517 1101 l 517 142 l 708 142 l 708 0 z "},"2":{"ha":806,"x_min":74,"x_max":740,"o":"m 219 532 l 542 694 q 558 707 553 701 q 564 726 564 713 l 564 928 q 542 950 564 950 l 97 950 l 97 1101 l 500 1108 q 686 1049 632 1111 q 740 878 740 988 l 740 738 q 705 624 740 663 q 592 544 669 585 l 279 388 q 254 365 260 378 q 249 328 249 353 l 249 151 l 736 151 l 736 0 l 74 0 l 74 328 q 90 428 74 393 q 138 485 106 463 q 219 532 171 507 z "},"3":{"ha":806,"x_min":43,"x_max":693,"o":"m 428 -7 l 43 0 l 43 151 l 492 151 q 514 174 514 151 l 514 468 q 492 490 514 490 l 146 490 l 146 642 l 482 642 q 506 664 506 642 l 506 928 q 482 951 506 951 l 49 951 l 49 1101 l 424 1108 q 619 1051 553 1111 q 685 872 685 990 l 685 739 q 660 634 685 676 q 589 568 635 592 q 693 385 693 524 l 693 232 q 625 53 693 117 q 428 -7 557 -10 z "},"4":{"ha":944,"x_min":28,"x_max":889,"o":"m 551 0 l 551 249 l 28 249 l 28 374 l 343 951 q 396 1041 372 1007 q 456 1091 419 1075 q 558 1106 493 1107 l 725 1101 l 725 396 l 889 396 l 889 249 l 725 249 l 725 0 l 551 0 m 490 933 l 201 396 l 551 396 l 551 951 l 515 951 q 501 947 506 951 q 490 933 497 943 z "},"5":{"ha":811,"x_min":71,"x_max":725,"o":"m 461 681 q 657 622 589 681 q 725 447 725 563 l 725 229 q 659 51 725 111 q 465 -7 593 -10 l 71 0 l 71 151 l 524 151 q 546 174 546 151 l 546 507 q 524 529 546 529 l 83 529 l 83 1101 l 683 1101 l 683 950 l 256 950 l 256 681 l 461 681 z "},"6":{"ha":883,"x_min":121,"x_max":813,"o":"m 381 -6 q 186 49 251 -6 q 121 222 121 104 l 121 869 q 188 1048 121 985 q 385 1108 256 1111 l 757 1101 l 757 950 l 322 950 q 299 926 299 950 l 299 683 l 560 683 q 751 631 689 683 q 813 456 813 578 l 813 229 q 746 53 813 111 q 551 -6 679 -6 l 381 -6 m 322 151 l 611 151 q 632 174 632 151 l 632 513 q 611 536 632 536 l 299 536 l 299 174 q 322 151 299 151 z "},"7":{"ha":729,"x_min":29,"x_max":693,"o":"m 114 -4 l 499 935 q 499 953 503 946 q 485 960 496 960 l 29 958 l 29 1103 l 544 1103 q 658 1060 622 1103 q 693 944 693 1018 l 301 -4 l 114 -4 z "},"8":{"ha":951,"x_min":111,"x_max":842,"o":"m 375 -7 q 179 55 247 -7 q 111 232 111 117 l 111 385 q 215 568 111 522 q 144 634 169 592 q 119 739 119 676 l 119 872 q 381 1108 119 1108 l 572 1108 q 832 872 832 1108 l 832 739 q 808 634 832 676 q 736 568 783 592 q 842 385 842 524 l 842 232 q 774 55 842 117 q 576 -7 707 -7 l 375 -7 m 321 639 l 631 639 q 654 663 654 639 l 654 928 q 631 951 654 951 l 321 951 q 299 928 299 951 l 299 663 q 321 639 299 639 m 313 151 l 639 151 q 663 174 663 151 l 663 471 q 639 493 663 493 l 313 493 q 290 471 290 493 l 290 174 q 313 151 290 151 z "},"9":{"ha":883,"x_min":71,"x_max":763,"o":"m 499 -7 l 114 0 l 114 151 l 561 151 q 585 174 585 151 l 585 407 l 322 407 q 132 460 193 407 q 71 636 71 514 l 71 872 q 332 1107 71 1107 l 503 1107 q 697 1053 632 1107 q 763 879 763 999 l 763 232 q 694 53 763 117 q 499 -7 626 -10 m 272 556 l 585 556 l 585 926 q 560 950 585 950 l 272 950 q 250 926 250 950 l 250 578 q 272 556 250 556 z "},"A":{"ha":926,"x_min":19,"x_max":911,"o":"m 736 0 l 674 276 l 253 276 l 182 0 l 19 0 l 271 929 q 311 1038 290 1000 q 371 1092 332 1076 q 479 1106 410 1107 l 651 1101 l 911 0 l 736 0 m 424 932 l 290 426 l 640 426 l 519 951 l 443 951 q 424 932 426 951 z "},"Á":{"ha":926,"x_min":19,"x_max":911,"o":"m 736 0 l 674 276 l 253 276 l 182 0 l 19 0 l 271 929 q 311 1038 290 1000 q 371 1092 332 1076 q 479 1106 410 1107 l 651 1101 l 911 0 l 736 0 m 424 932 l 290 426 l 640 426 l 519 951 l 443 951 q 424 932 426 951 m 540 1182 l 415 1182 l 524 1438 l 697 1436 l 540 1182 z "},"Â":{"ha":926,"x_min":19,"x_max":911,"o":"m 736 0 l 674 276 l 253 276 l 182 0 l 19 0 l 271 929 q 311 1038 290 1000 q 371 1092 332 1076 q 479 1106 410 1107 l 651 1101 l 911 0 l 736 0 m 424 932 l 290 426 l 640 426 l 519 951 l 443 951 q 424 932 426 951 m 728 1182 l 582 1182 l 481 1349 l 368 1182 l 228 1182 l 394 1429 l 569 1429 l 728 1182 z "},"Ä":{"ha":926,"x_min":19,"x_max":911,"o":"m 736 0 l 674 276 l 253 276 l 182 0 l 19 0 l 271 929 q 311 1038 290 1000 q 371 1092 332 1076 q 479 1106 410 1107 l 651 1101 l 911 0 l 736 0 m 424 932 l 290 426 l 640 426 l 519 951 l 443 951 q 424 932 426 951 m 256 1218 l 256 1385 l 407 1385 l 407 1218 l 256 1218 m 568 1218 l 568 1385 l 718 1385 l 718 1218 l 568 1218 z "},"À":{"ha":926,"x_min":19,"x_max":911,"o":"m 736 0 l 674 276 l 253 276 l 182 0 l 19 0 l 271 929 q 311 1038 290 1000 q 371 1092 332 1076 q 479 1106 410 1107 l 651 1101 l 911 0 l 736 0 m 424 932 l 290 426 l 640 426 l 519 951 l 443 951 q 424 932 426 951 m 439 1182 l 269 1436 l 443 1438 l 558 1182 l 439 1182 z "},"Å":{"ha":926,"x_min":19,"x_max":911,"o":"m 736 0 l 674 276 l 253 276 l 182 0 l 19 0 l 271 929 q 311 1038 290 1000 q 371 1092 332 1076 q 479 1106 410 1107 l 651 1101 l 911 0 l 736 0 m 424 932 l 290 426 l 640 426 l 519 951 l 443 951 q 424 932 426 951 m 486 1151 q 356 1191 390 1151 q 321 1318 321 1231 q 356 1445 321 1408 q 486 1482 390 1482 q 622 1445 585 1482 q 658 1318 658 1408 q 622 1191 658 1231 q 486 1151 585 1151 m 486 1229 q 555 1250 539 1229 q 571 1318 571 1271 q 555 1388 571 1371 q 486 1406 539 1406 q 422 1388 436 1406 q 408 1318 408 1371 q 422 1250 408 1271 q 486 1229 436 1229 z "},"Ã":{"ha":926,"x_min":19,"x_max":911,"o":"m 736 0 l 674 276 l 253 276 l 182 0 l 19 0 l 271 929 q 311 1038 290 1000 q 371 1092 332 1076 q 479 1106 410 1107 l 651 1101 l 911 0 l 736 0 m 424 932 l 290 426 l 640 426 l 519 951 l 443 951 q 424 932 426 951 m 232 1221 q 261 1366 232 1326 q 349 1406 290 1406 q 430 1389 392 1406 q 503 1356 468 1372 q 568 1339 538 1339 q 606 1355 596 1339 q 615 1406 615 1371 l 724 1406 q 690 1261 724 1301 q 599 1221 656 1221 q 517 1238 557 1221 q 442 1271 478 1254 q 379 1288 407 1288 q 349 1272 360 1288 q 339 1219 339 1257 l 232 1221 z "},"Æ":{"ha":1367,"x_min":4,"x_max":1306,"o":"m 4 0 l 403 929 q 452 1035 431 997 q 510 1088 474 1072 q 615 1103 546 1103 l 1297 1101 l 1297 950 l 851 950 l 851 629 l 1265 629 l 1265 479 l 851 479 l 851 151 l 1306 151 l 1306 0 l 676 0 l 676 307 l 304 307 l 176 0 l 4 0 m 567 931 l 365 457 l 676 457 l 676 950 l 586 950 q 574 946 576 950 q 567 931 571 942 z "},"B":{"ha":965,"x_min":121,"x_max":861,"o":"m 597 -7 l 121 0 l 121 1101 l 576 1108 q 770 1051 704 1111 q 836 872 836 990 l 836 732 q 749 564 836 613 q 833 497 806 542 q 861 378 861 451 l 861 232 q 794 54 861 117 q 597 -7 726 -8 m 635 958 l 296 958 l 296 632 l 635 632 q 658 654 658 632 l 658 936 q 635 958 658 958 m 661 488 l 296 488 l 296 144 l 661 144 q 683 167 683 144 l 683 465 q 661 488 683 488 z "},"C":{"ha":756,"x_min":101,"x_max":724,"o":"m 724 0 l 350 0 q 163 53 224 0 q 101 221 101 107 l 101 879 q 163 1048 101 994 q 350 1101 224 1101 l 724 1101 l 724 944 l 299 944 q 279 925 279 944 l 279 175 q 299 157 279 157 l 724 157 l 724 0 z "},"Ç":{"ha":756,"x_min":101,"x_max":724,"o":"m 724 0 l 350 0 q 163 53 224 0 q 101 221 101 107 l 101 879 q 163 1048 101 994 q 350 1101 224 1101 l 724 1101 l 724 944 l 299 944 q 279 925 279 944 l 279 175 q 299 157 279 157 l 724 157 l 724 0 m 496 -179 q 483 -168 496 -168 l 340 -168 l 381 21 l 464 8 l 447 -78 l 465 -78 q 568 -102 532 -78 q 604 -189 604 -126 l 604 -226 q 450 -365 604 -365 l 319 -365 l 319 -265 l 483 -265 q 496 -253 496 -265 l 496 -179 z "},"D":{"ha":967,"x_min":121,"x_max":861,"o":"m 121 1101 l 603 1110 q 798 1055 735 1113 q 861 872 861 997 l 861 229 q 796 47 861 103 q 597 -8 731 -10 l 121 0 l 121 1101 m 296 957 l 296 144 l 661 144 q 683 167 683 144 l 683 935 q 661 957 683 957 l 296 957 z "},"Ð":{"ha":967,"x_min":31,"x_max":861,"o":"m 121 1101 l 603 1110 q 798 1055 735 1113 q 861 872 861 997 l 861 229 q 796 47 861 103 q 597 -8 731 -10 l 121 0 l 121 1101 m 296 957 l 296 144 l 661 144 q 683 167 683 144 l 683 935 q 661 957 683 957 l 296 957 m 486 489 l 31 489 l 31 626 l 486 626 l 486 489 z "},"E":{"ha":810,"x_min":121,"x_max":754,"o":"m 121 0 l 121 1101 l 744 1101 l 744 950 l 296 950 l 296 633 l 714 633 l 714 483 l 296 483 l 296 151 l 754 151 l 754 0 l 121 0 z "},"É":{"ha":810,"x_min":121,"x_max":754,"o":"m 121 0 l 121 1101 l 744 1101 l 744 950 l 296 950 l 296 633 l 714 633 l 714 483 l 296 483 l 296 151 l 754 151 l 754 0 l 121 0 m 494 1182 l 369 1182 l 478 1438 l 651 1436 l 494 1182 z "},"Ê":{"ha":810,"x_min":121,"x_max":754,"o":"m 121 0 l 121 1101 l 744 1101 l 744 950 l 296 950 l 296 633 l 714 633 l 714 483 l 296 483 l 296 151 l 754 151 l 754 0 l 121 0 m 682 1182 l 536 1182 l 435 1349 l 322 1182 l 182 1182 l 349 1429 l 524 1429 l 682 1182 z "},"Ë":{"ha":810,"x_min":121,"x_max":754,"o":"m 121 0 l 121 1101 l 744 1101 l 744 950 l 296 950 l 296 633 l 714 633 l 714 483 l 296 483 l 296 151 l 754 151 l 754 0 l 121 0 m 210 1218 l 210 1385 l 361 1385 l 361 1218 l 210 1218 m 522 1218 l 522 1385 l 672 1385 l 672 1218 l 522 1218 z "},"È":{"ha":810,"x_min":121,"x_max":754,"o":"m 121 0 l 121 1101 l 744 1101 l 744 950 l 296 950 l 296 633 l 714 633 l 714 483 l 296 483 l 296 151 l 754 151 l 754 0 l 121 0 m 393 1182 l 224 1436 l 397 1438 l 513 1182 l 393 1182 z "},"F":{"ha":764,"x_min":121,"x_max":732,"o":"m 700 468 l 296 468 l 296 0 l 121 0 l 121 1101 l 732 1101 l 732 950 l 296 950 l 296 618 l 700 618 l 700 468 z "},"G":{"ha":929,"x_min":104,"x_max":844,"o":"m 351 -12 q 165 40 225 -12 q 104 207 104 93 l 104 893 q 165 1061 104 1008 q 351 1114 225 1114 l 824 1114 l 824 957 l 300 957 q 282 939 282 957 l 282 163 q 300 144 282 144 l 656 144 q 675 163 675 144 l 675 443 l 500 443 l 500 590 l 844 590 l 844 207 q 783 40 844 93 q 596 -12 722 -12 l 351 -12 z "},"H":{"ha":1017,"x_min":121,"x_max":897,"o":"m 724 1101 l 897 1101 l 897 0 l 724 0 l 724 483 l 296 483 l 296 0 l 121 0 l 121 1101 l 296 1101 l 296 635 l 724 635 l 724 1101 z "},"I":{"ha":458,"x_min":142,"x_max":317,"o":"m 142 0 l 142 1101 l 317 1101 l 317 0 l 142 0 z "},"Í":{"ha":458,"x_min":142,"x_max":436,"o":"m 142 0 l 142 1101 l 317 1101 l 317 0 l 142 0 m 279 1182 l 154 1182 l 263 1438 l 436 1436 l 279 1182 z "},"Î":{"ha":458,"x_min":-26,"x_max":474,"o":"m 142 0 l 142 1101 l 317 1101 l 317 0 l 142 0 m 474 1182 l 328 1182 l 226 1349 l 114 1182 l -26 1182 l 140 1429 l 315 1429 l 474 1182 z "},"Ï":{"ha":458,"x_min":1,"x_max":464,"o":"m 142 0 l 142 1101 l 317 1101 l 317 0 l 142 0 m 1 1218 l 1 1385 l 153 1385 l 153 1218 l 1 1218 m 314 1218 l 314 1385 l 464 1385 l 464 1218 l 314 1218 z "},"Ì":{"ha":458,"x_min":15,"x_max":317,"o":"m 142 0 l 142 1101 l 317 1101 l 317 0 l 142 0 m 185 1182 l 15 1436 l 189 1438 l 304 1182 l 185 1182 z "},"J":{"ha":497,"x_min":13,"x_max":376,"o":"m 376 204 q 319 38 376 89 q 142 -12 261 -12 l 13 -12 l 13 144 l 183 144 q 201 163 201 144 l 201 1101 l 376 1101 l 376 204 z "},"K":{"ha":967,"x_min":129,"x_max":957,"o":"m 129 0 l 129 1101 l 304 1101 l 304 632 l 531 632 q 543 637 540 632 q 550 651 546 642 l 740 1101 l 915 1101 l 743 703 q 697 608 717 642 q 642 557 676 574 q 703 507 681 542 q 757 410 726 472 l 957 0 l 771 0 l 550 463 q 543 476 546 472 q 529 481 540 481 l 304 481 l 304 0 l 129 0 z "},"L":{"ha":714,"x_min":121,"x_max":706,"o":"m 706 0 l 121 0 l 121 1101 l 296 1101 l 296 151 l 706 151 l 706 0 z "},"M":{"ha":1147,"x_min":113,"x_max":1038,"o":"m 924 1101 q 1012 1074 986 1101 q 1038 988 1038 1047 l 1038 0 l 869 0 l 869 829 l 615 338 l 513 338 l 267 824 l 267 0 l 113 0 l 113 1101 l 207 1101 q 274 1087 253 1101 q 313 1033 294 1072 l 575 531 l 871 1101 l 924 1101 z "},"N":{"ha":1004,"x_min":111,"x_max":893,"o":"m 742 1101 l 893 1101 l 893 0 l 771 0 l 263 783 l 263 0 l 111 0 l 111 1101 l 232 1101 l 742 317 l 742 1101 z "},"Ñ":{"ha":1004,"x_min":111,"x_max":893,"o":"m 742 1101 l 893 1101 l 893 0 l 771 0 l 263 783 l 263 0 l 111 0 l 111 1101 l 232 1101 l 742 317 l 742 1101 m 242 1221 q 271 1366 242 1326 q 358 1406 300 1406 q 440 1389 401 1406 q 513 1356 478 1372 q 578 1339 547 1339 q 615 1355 606 1339 q 625 1406 625 1371 l 733 1406 q 699 1261 733 1301 q 608 1221 665 1221 q 527 1238 567 1221 q 452 1271 488 1254 q 389 1288 417 1288 q 359 1272 369 1288 q 349 1219 349 1257 l 242 1221 z "},"O":{"ha":988,"x_min":104,"x_max":885,"o":"m 104 893 q 165 1061 104 1008 q 351 1114 225 1114 l 638 1114 q 824 1061 763 1114 q 885 893 885 1008 l 885 207 q 824 40 885 93 q 638 -12 763 -12 l 351 -12 q 165 40 225 -12 q 104 207 104 93 l 104 893 m 300 957 q 282 939 282 957 l 282 163 q 300 144 282 144 l 688 144 q 706 163 706 144 l 706 939 q 688 957 706 957 l 300 957 z "},"Ó":{"ha":988,"x_min":104,"x_max":885,"o":"m 104 893 q 165 1061 104 1008 q 351 1114 225 1114 l 638 1114 q 824 1061 763 1114 q 885 893 885 1008 l 885 207 q 824 40 885 93 q 638 -12 763 -12 l 351 -12 q 165 40 225 -12 q 104 207 104 93 l 104 893 m 300 957 q 282 939 282 957 l 282 163 q 300 144 282 144 l 688 144 q 706 163 706 144 l 706 939 q 688 957 706 957 l 300 957 m 554 1182 l 429 1182 l 538 1438 l 711 1436 l 554 1182 z "},"Ô":{"ha":988,"x_min":104,"x_max":885,"o":"m 104 893 q 165 1061 104 1008 q 351 1114 225 1114 l 638 1114 q 824 1061 763 1114 q 885 893 885 1008 l 885 207 q 824 40 885 93 q 638 -12 763 -12 l 351 -12 q 165 40 225 -12 q 104 207 104 93 l 104 893 m 300 957 q 282 939 282 957 l 282 163 q 300 144 282 144 l 688 144 q 706 163 706 144 l 706 939 q 688 957 706 957 l 300 957 m 742 1182 l 596 1182 l 494 1349 l 382 1182 l 242 1182 l 408 1429 l 583 1429 l 742 1182 z "},"Ö":{"ha":988,"x_min":104,"x_max":885,"o":"m 104 893 q 165 1061 104 1008 q 351 1114 225 1114 l 638 1114 q 824 1061 763 1114 q 885 893 885 1008 l 885 207 q 824 40 885 93 q 638 -12 763 -12 l 351 -12 q 165 40 225 -12 q 104 207 104 93 l 104 893 m 300 957 q 282 939 282 957 l 282 163 q 300 144 282 144 l 688 144 q 706 163 706 144 l 706 939 q 688 957 706 957 l 300 957 m 269 1218 l 269 1385 l 421 1385 l 421 1218 l 269 1218 m 582 1218 l 582 1385 l 732 1385 l 732 1218 l 582 1218 z "},"Ò":{"ha":988,"x_min":104,"x_max":885,"o":"m 104 893 q 165 1061 104 1008 q 351 1114 225 1114 l 638 1114 q 824 1061 763 1114 q 885 893 885 1008 l 885 207 q 824 40 885 93 q 638 -12 763 -12 l 351 -12 q 165 40 225 -12 q 104 207 104 93 l 104 893 m 300 957 q 282 939 282 957 l 282 163 q 300 144 282 144 l 688 144 q 706 163 706 144 l 706 939 q 688 957 706 957 l 300 957 m 453 1182 l 283 1436 l 457 1438 l 572 1182 l 453 1182 z "},"Ø":{"ha":988,"x_min":104,"x_max":885,"o":"m 104 893 q 165 1061 104 1008 q 351 1114 225 1114 l 638 1114 q 710 1108 676 1114 l 747 1188 l 858 1188 l 804 1076 q 885 893 885 1024 l 885 207 q 824 40 885 93 q 638 -12 763 -12 l 351 -12 q 279 -7 313 -12 l 239 -92 l 128 -92 l 185 25 q 104 207 104 76 l 104 893 m 300 957 q 282 939 282 957 l 282 226 l 636 957 l 300 957 m 706 163 l 706 872 l 353 144 l 688 144 q 706 163 706 144 z "},"Õ":{"ha":988,"x_min":104,"x_max":885,"o":"m 104 893 q 165 1061 104 1008 q 351 1114 225 1114 l 638 1114 q 824 1061 763 1114 q 885 893 885 1008 l 885 207 q 824 40 885 93 q 638 -12 763 -12 l 351 -12 q 165 40 225 -12 q 104 207 104 93 l 104 893 m 300 957 q 282 939 282 957 l 282 163 q 300 144 282 144 l 688 144 q 706 163 706 144 l 706 939 q 688 957 706 957 l 300 957 m 246 1221 q 275 1366 246 1326 q 363 1406 304 1406 q 444 1389 406 1406 q 517 1356 482 1372 q 582 1339 551 1339 q 619 1355 610 1339 q 629 1406 629 1371 l 738 1406 q 703 1261 738 1301 q 613 1221 669 1221 q 531 1238 571 1221 q 456 1271 492 1254 q 393 1288 421 1288 q 363 1272 374 1288 q 353 1219 353 1257 l 246 1221 z "},"Œ":{"ha":1381,"x_min":96,"x_max":1321,"o":"m 343 -6 q 156 46 217 -7 q 96 214 96 99 l 96 886 q 156 1055 96 1001 q 343 1107 217 1108 l 1313 1101 l 1313 950 l 864 950 l 864 633 l 1281 633 l 1281 483 l 864 483 l 864 151 l 1321 151 l 1321 0 l 343 -6 m 293 151 l 690 151 l 690 950 l 293 950 q 275 931 275 950 l 275 169 q 293 151 275 151 z "},"P":{"ha":897,"x_min":125,"x_max":850,"o":"m 125 0 l 125 1101 l 590 1108 q 785 1051 719 1111 q 850 872 850 990 l 850 647 q 785 472 850 536 q 590 407 719 407 l 300 407 l 300 0 l 125 0 m 649 956 l 300 956 l 300 558 l 649 558 q 671 581 671 558 l 671 933 q 649 956 671 956 z "},"Þ":{"ha":928,"x_min":125,"x_max":847,"o":"m 125 0 l 125 1101 l 300 1101 l 300 919 l 589 919 q 847 685 847 919 l 847 464 q 782 288 847 353 q 589 224 717 224 l 300 224 l 300 0 l 125 0 m 647 768 l 300 768 l 300 375 l 647 375 q 669 397 669 375 l 669 744 q 647 768 669 768 z "},"Q":{"ha":993,"x_min":104,"x_max":885,"o":"m 104 893 q 165 1061 104 1008 q 351 1114 225 1114 l 638 1114 q 824 1061 763 1114 q 885 893 885 1008 l 885 207 q 824 40 885 93 q 643 -12 764 -12 l 699 -204 l 532 -204 l 488 -12 l 351 -12 q 165 40 225 -12 q 104 207 104 93 l 104 893 m 300 957 q 282 939 282 957 l 282 163 q 300 144 282 144 l 688 144 q 706 163 706 144 l 706 939 q 688 957 706 957 l 300 957 z "},"R":{"ha":943,"x_min":125,"x_max":888,"o":"m 125 0 l 125 1101 l 589 1108 q 784 1051 718 1111 q 850 872 850 990 l 850 675 q 697 451 850 499 q 767 342 739 422 l 888 0 l 711 0 l 572 410 q 563 427 568 422 q 544 432 558 432 l 300 432 l 300 0 l 125 0 m 649 956 l 300 956 l 300 582 l 649 582 q 671 606 671 582 l 671 933 q 649 956 671 956 z "},"S":{"ha":838,"x_min":65,"x_max":775,"o":"m 510 632 q 707 573 639 632 q 775 399 775 514 l 775 229 q 709 51 775 111 q 514 -7 643 -10 l 89 0 l 89 151 l 574 151 q 596 174 596 151 l 596 451 q 574 474 596 474 l 326 474 q 131 531 197 474 q 65 706 65 588 l 65 869 q 133 1048 65 985 q 331 1108 201 1111 l 735 1101 l 735 950 l 267 950 q 244 926 244 950 l 244 654 q 267 632 244 632 l 510 632 z "},"T":{"ha":729,"x_min":8,"x_max":718,"o":"m 276 0 l 276 950 l 8 950 l 8 1101 l 718 1101 l 718 950 l 451 950 l 451 0 l 276 0 z "},"U":{"ha":983,"x_min":104,"x_max":881,"o":"m 351 -12 q 165 40 225 -12 q 104 207 104 93 l 104 1101 l 282 1101 l 282 163 q 300 144 282 144 l 683 144 q 701 163 701 144 l 701 1101 l 881 1101 l 881 207 q 819 40 881 93 q 633 -12 758 -12 l 351 -12 z "},"Ú":{"ha":983,"x_min":104,"x_max":881,"o":"m 351 -12 q 165 40 225 -12 q 104 207 104 93 l 104 1101 l 282 1101 l 282 163 q 300 144 282 144 l 683 144 q 701 163 701 144 l 701 1101 l 881 1101 l 881 207 q 819 40 881 93 q 633 -12 758 -12 l 351 -12 m 550 1182 l 425 1182 l 533 1438 l 707 1436 l 550 1182 z "},"Û":{"ha":983,"x_min":104,"x_max":881,"o":"m 351 -12 q 165 40 225 -12 q 104 207 104 93 l 104 1101 l 282 1101 l 282 163 q 300 144 282 144 l 683 144 q 701 163 701 144 l 701 1101 l 881 1101 l 881 207 q 819 40 881 93 q 633 -12 758 -12 l 351 -12 m 738 1182 l 592 1182 l 490 1349 l 378 1182 l 238 1182 l 404 1429 l 579 1429 l 738 1182 z "},"Ü":{"ha":983,"x_min":104,"x_max":881,"o":"m 351 -12 q 165 40 225 -12 q 104 207 104 93 l 104 1101 l 282 1101 l 282 163 q 300 144 282 144 l 683 144 q 701 163 701 144 l 701 1101 l 881 1101 l 881 207 q 819 40 881 93 q 633 -12 758 -12 l 351 -12 m 265 1218 l 265 1385 l 417 1385 l 417 1218 l 265 1218 m 578 1218 l 578 1385 l 728 1385 l 728 1218 l 578 1218 z "},"Ù":{"ha":983,"x_min":104,"x_max":881,"o":"m 351 -12 q 165 40 225 -12 q 104 207 104 93 l 104 1101 l 282 1101 l 282 163 q 300 144 282 144 l 683 144 q 701 163 701 144 l 701 1101 l 881 1101 l 881 207 q 819 40 881 93 q 633 -12 758 -12 l 351 -12 m 449 1182 l 279 1436 l 453 1438 l 568 1182 l 449 1182 z "},"V":{"ha":900,"x_min":17,"x_max":886,"o":"m 451 -4 l 271 0 l 17 1101 l 189 1101 l 404 151 l 474 151 q 492 171 490 151 l 722 1101 l 886 1101 l 649 176 q 611 63 631 103 q 556 10 592 24 q 451 -4 519 -4 z "},"W":{"ha":1364,"x_min":117,"x_max":1244,"o":"m 321 -12 q 166 28 215 -12 q 117 175 117 69 l 117 1101 l 294 1101 l 294 163 q 311 144 294 144 l 578 144 q 594 163 594 144 l 594 1101 l 764 1101 l 764 163 q 783 144 764 144 l 1050 144 q 1068 163 1068 144 l 1067 1101 l 1243 1101 l 1244 176 q 1197 29 1244 71 q 1044 -12 1149 -12 l 860 -12 q 679 89 713 -12 q 500 -12 647 -12 l 321 -12 z "},"X":{"ha":972,"x_min":11,"x_max":963,"o":"m 756 408 l 963 0 l 775 0 l 551 463 q 529 479 543 479 l 433 479 q 411 463 418 479 l 188 0 l 11 0 l 214 410 q 263 505 243 469 q 318 557 283 540 q 260 608 282 574 q 213 703 238 643 l 31 1101 l 217 1101 l 419 650 q 428 636 424 640 q 442 632 432 632 l 538 632 q 560 650 553 632 l 767 1101 l 943 1101 l 754 701 q 704 606 725 640 q 649 554 683 571 q 705 502 683 538 q 756 408 726 467 z "},"Y":{"ha":926,"x_min":17,"x_max":907,"o":"m 374 0 l 374 396 q 283 444 313 407 q 225 556 254 481 l 17 1101 l 201 1101 l 407 560 q 429 542 413 542 l 503 542 q 525 560 519 542 l 732 1101 l 907 1101 l 693 554 q 655 468 672 501 q 613 417 638 435 q 547 394 589 400 l 547 0 l 374 0 z "},"Ý":{"ha":926,"x_min":17,"x_max":907,"o":"m 374 0 l 374 396 q 283 444 313 407 q 225 556 254 481 l 17 1101 l 201 1101 l 407 560 q 429 542 413 542 l 503 542 q 525 560 519 542 l 732 1101 l 907 1101 l 693 554 q 655 468 672 501 q 613 417 638 435 q 547 394 589 400 l 547 0 l 374 0 m 521 1182 l 396 1182 l 504 1438 l 678 1436 l 521 1182 z "},"Z":{"ha":832,"x_min":44,"x_max":793,"o":"m 775 -1 l 186 -1 q 44 142 44 -1 l 585 936 q 588 953 592 946 q 574 960 585 960 l 88 960 l 88 1103 l 643 1103 q 757 1060 721 1103 q 793 944 793 1018 l 263 168 q 259 150 257 158 q 272 142 261 142 l 776 142 l 775 -1 z "},"a":{"ha":738,"x_min":51,"x_max":658,"o":"m 251 -12 q 99 28 147 -12 q 51 175 51 69 l 51 300 q 102 455 51 411 q 271 499 153 499 l 489 499 l 489 692 q 471 710 489 710 l 103 708 l 103 851 l 433 851 q 606 806 553 853 q 658 644 658 760 l 658 0 l 507 0 l 493 96 q 445 15 482 42 q 340 -12 408 -12 l 251 -12 m 489 124 l 489 376 l 236 376 q 218 358 218 376 l 218 143 q 236 124 218 124 l 489 124 z "},"á":{"ha":738,"x_min":51,"x_max":658,"o":"m 251 -12 q 99 28 147 -12 q 51 175 51 69 l 51 300 q 102 455 51 411 q 271 499 153 499 l 489 499 l 489 692 q 471 710 489 710 l 103 708 l 103 851 l 433 851 q 606 806 553 853 q 658 644 658 760 l 658 0 l 507 0 l 493 96 q 445 15 482 42 q 340 -12 408 -12 l 251 -12 m 489 124 l 489 376 l 236 376 q 218 358 218 376 l 218 143 q 236 124 218 124 l 489 124 m 428 957 l 303 957 l 411 1213 l 585 1211 l 428 957 z "},"â":{"ha":738,"x_min":51,"x_max":658,"o":"m 251 -12 q 99 28 147 -12 q 51 175 51 69 l 51 300 q 102 455 51 411 q 271 499 153 499 l 489 499 l 489 692 q 471 710 489 710 l 103 708 l 103 851 l 433 851 q 606 806 553 853 q 658 644 658 760 l 658 0 l 507 0 l 493 96 q 445 15 482 42 q 340 -12 408 -12 l 251 -12 m 489 124 l 489 376 l 236 376 q 218 358 218 376 l 218 143 q 236 124 218 124 l 489 124 m 615 957 l 469 957 l 368 1124 l 256 957 l 115 957 l 282 1204 l 457 1204 l 615 957 z "},"ä":{"ha":738,"x_min":51,"x_max":658,"o":"m 251 -12 q 99 28 147 -12 q 51 175 51 69 l 51 300 q 102 455 51 411 q 271 499 153 499 l 489 499 l 489 692 q 471 710 489 710 l 103 708 l 103 851 l 433 851 q 606 806 553 853 q 658 644 658 760 l 658 0 l 507 0 l 493 96 q 445 15 482 42 q 340 -12 408 -12 l 251 -12 m 489 124 l 489 376 l 236 376 q 218 358 218 376 l 218 143 q 236 124 218 124 l 489 124 m 143 993 l 143 1160 l 294 1160 l 294 993 l 143 993 m 456 993 l 456 1160 l 606 1160 l 606 993 l 456 993 z "},"à":{"ha":738,"x_min":51,"x_max":658,"o":"m 251 -12 q 99 28 147 -12 q 51 175 51 69 l 51 300 q 102 455 51 411 q 271 499 153 499 l 489 499 l 489 692 q 471 710 489 710 l 103 708 l 103 851 l 433 851 q 606 806 553 853 q 658 644 658 760 l 658 0 l 507 0 l 493 96 q 445 15 482 42 q 340 -12 408 -12 l 251 -12 m 489 124 l 489 376 l 236 376 q 218 358 218 376 l 218 143 q 236 124 218 124 l 489 124 m 326 957 l 157 1211 l 331 1213 l 446 957 l 326 957 z "},"å":{"ha":738,"x_min":51,"x_max":658,"o":"m 251 -12 q 99 28 147 -12 q 51 175 51 69 l 51 300 q 102 455 51 411 q 271 499 153 499 l 489 499 l 489 692 q 471 710 489 710 l 103 708 l 103 851 l 433 851 q 606 806 553 853 q 658 644 658 760 l 658 0 l 507 0 l 493 96 q 445 15 482 42 q 340 -12 408 -12 l 251 -12 m 489 124 l 489 376 l 236 376 q 218 358 218 376 l 218 143 q 236 124 218 124 l 489 124 m 374 926 q 243 966 278 926 q 208 1093 208 1006 q 243 1220 208 1183 q 374 1257 278 1257 q 509 1220 472 1257 q 546 1093 546 1183 q 509 966 546 1006 q 374 926 472 926 m 374 1004 q 442 1025 426 1004 q 458 1093 458 1046 q 442 1163 458 1146 q 374 1181 426 1181 q 310 1163 324 1181 q 296 1093 296 1146 q 310 1025 296 1046 q 374 1004 324 1004 z "},"ã":{"ha":738,"x_min":51,"x_max":658,"o":"m 251 -12 q 99 28 147 -12 q 51 175 51 69 l 51 300 q 102 455 51 411 q 271 499 153 499 l 489 499 l 489 692 q 471 710 489 710 l 103 708 l 103 851 l 433 851 q 606 806 553 853 q 658 644 658 760 l 658 0 l 507 0 l 493 96 q 445 15 482 42 q 340 -12 408 -12 l 251 -12 m 489 124 l 489 376 l 236 376 q 218 358 218 376 l 218 143 q 236 124 218 124 l 489 124 m 119 996 q 149 1141 119 1101 q 236 1181 178 1181 q 317 1164 279 1181 q 390 1131 356 1147 q 456 1114 425 1114 q 493 1130 483 1114 q 503 1181 503 1146 l 611 1181 q 577 1036 611 1076 q 486 996 543 996 q 405 1013 444 996 q 330 1046 365 1029 q 267 1063 294 1063 q 237 1047 247 1063 q 226 994 226 1032 l 119 996 z "},"æ":{"ha":1161,"x_min":51,"x_max":1093,"o":"m 251 -12 q 99 28 147 -12 q 51 175 51 69 l 51 283 q 102 439 51 396 q 271 482 153 482 l 490 482 l 490 690 q 472 708 490 708 l 103 707 l 103 849 l 415 850 q 572 804 531 851 q 626 849 589 836 q 732 863 663 863 l 872 863 q 1042 819 992 863 q 1093 660 1093 775 l 1093 344 l 657 344 l 657 150 q 676 132 657 132 l 1071 132 l 1071 -10 l 728 -10 q 503 103 544 -10 q 458 17 494 47 q 354 -12 422 -12 l 251 -12 m 676 726 q 657 707 657 726 l 657 467 l 925 467 l 925 707 q 907 726 925 726 l 676 726 m 236 124 l 497 124 q 490 188 490 153 l 490 360 l 236 360 q 218 342 218 360 l 218 143 q 236 124 218 124 z "},"b":{"ha":793,"x_min":100,"x_max":717,"o":"m 100 0 l 100 1169 l 268 1169 l 268 769 q 417 863 296 863 l 514 863 q 668 821 619 863 q 717 674 717 779 l 717 190 q 666 34 717 78 q 496 -8 615 -10 l 100 0 m 268 707 l 268 135 l 531 132 q 549 151 549 132 l 549 707 q 531 726 549 726 l 288 726 q 268 707 268 726 z "},"c":{"ha":606,"x_min":78,"x_max":576,"o":"m 315 -12 q 133 35 189 -12 q 78 199 78 83 l 78 651 q 133 815 78 767 q 315 863 189 863 l 576 863 l 576 722 l 267 722 q 247 703 247 722 l 247 147 q 267 128 247 128 l 576 128 l 576 -12 l 315 -12 z "},"ç":{"ha":606,"x_min":78,"x_max":576,"o":"m 315 -12 q 133 35 189 -12 q 78 199 78 83 l 78 651 q 133 815 78 767 q 315 863 189 863 l 576 863 l 576 722 l 267 722 q 247 703 247 722 l 247 147 q 267 128 247 128 l 576 128 l 576 -12 l 315 -12 m 401 -179 q 389 -168 401 -168 l 246 -168 l 286 21 l 369 8 l 353 -78 l 371 -78 q 474 -102 438 -78 q 510 -189 510 -126 l 510 -226 q 356 -365 510 -365 l 225 -365 l 225 -265 l 389 -265 q 401 -253 401 -265 l 401 -179 z "},"d":{"ha":793,"x_min":78,"x_max":693,"o":"m 693 1169 l 693 0 l 544 0 l 528 97 q 480 15 517 43 q 375 -12 443 -12 l 278 -12 q 126 28 174 -12 q 78 175 78 69 l 78 657 q 128 812 78 768 q 297 854 179 856 l 524 853 l 524 1169 l 693 1169 m 263 124 l 506 124 q 524 143 524 124 l 524 717 l 263 719 q 244 700 244 719 l 244 143 q 263 124 244 124 z "},"ð":{"ha":783,"x_min":78,"x_max":775,"o":"m 315 -12 q 133 35 189 -12 q 78 199 78 83 l 78 601 q 131 765 78 717 q 311 814 185 814 l 526 814 l 526 961 l 381 885 l 342 963 l 514 1051 l 507 1053 l 206 1051 l 206 1178 l 469 1178 q 580 1165 535 1178 q 651 1122 625 1153 l 739 1168 l 775 1090 l 688 1044 q 694 971 694 1013 l 694 199 q 640 35 694 83 q 458 -12 585 -12 l 315 -12 m 264 128 l 508 128 q 528 147 528 128 l 528 686 l 264 686 q 246 668 246 686 l 246 147 q 264 128 246 128 z "},"e":{"ha":754,"x_min":79,"x_max":686,"o":"m 318 -10 q 135 39 192 -10 q 79 203 79 88 l 79 660 q 128 819 79 775 q 294 863 176 863 l 465 863 q 635 819 585 863 q 686 660 686 775 l 686 328 l 249 328 l 249 150 q 267 132 249 132 l 664 132 l 664 -10 l 318 -10 m 267 726 q 249 707 249 726 l 249 450 l 518 450 l 518 707 q 500 726 518 726 l 267 726 z "},"é":{"ha":754,"x_min":79,"x_max":686,"o":"m 318 -10 q 135 39 192 -10 q 79 203 79 88 l 79 660 q 128 819 79 775 q 294 863 176 863 l 465 863 q 635 819 585 863 q 686 660 686 775 l 686 328 l 249 328 l 249 150 q 267 132 249 132 l 664 132 l 664 -10 l 318 -10 m 267 726 q 249 707 249 726 l 249 450 l 518 450 l 518 707 q 500 726 518 726 l 267 726 m 439 957 l 314 957 l 422 1213 l 596 1211 l 439 957 z "},"ê":{"ha":754,"x_min":79,"x_max":686,"o":"m 318 -10 q 135 39 192 -10 q 79 203 79 88 l 79 660 q 128 819 79 775 q 294 863 176 863 l 465 863 q 635 819 585 863 q 686 660 686 775 l 686 328 l 249 328 l 249 150 q 267 132 249 132 l 664 132 l 664 -10 l 318 -10 m 267 726 q 249 707 249 726 l 249 450 l 518 450 l 518 707 q 500 726 518 726 l 267 726 m 626 957 l 481 957 l 379 1124 l 267 957 l 126 957 l 293 1204 l 468 1204 l 626 957 z "},"ë":{"ha":754,"x_min":79,"x_max":686,"o":"m 318 -10 q 135 39 192 -10 q 79 203 79 88 l 79 660 q 128 819 79 775 q 294 863 176 863 l 465 863 q 635 819 585 863 q 686 660 686 775 l 686 328 l 249 328 l 249 150 q 267 132 249 132 l 664 132 l 664 -10 l 318 -10 m 267 726 q 249 707 249 726 l 249 450 l 518 450 l 518 707 q 500 726 518 726 l 267 726 m 154 993 l 154 1160 l 306 1160 l 306 993 l 154 993 m 467 993 l 467 1160 l 617 1160 l 617 993 l 467 993 z "},"è":{"ha":754,"x_min":79,"x_max":686,"o":"m 318 -10 q 135 39 192 -10 q 79 203 79 88 l 79 660 q 128 819 79 775 q 294 863 176 863 l 465 863 q 635 819 585 863 q 686 660 686 775 l 686 328 l 249 328 l 249 150 q 267 132 249 132 l 664 132 l 664 -10 l 318 -10 m 267 726 q 249 707 249 726 l 249 450 l 518 450 l 518 707 q 500 726 518 726 l 267 726 m 338 957 l 168 1211 l 342 1213 l 457 957 l 338 957 z "},"f":{"ha":521,"x_min":39,"x_max":547,"o":"m 324 1042 q 306 1024 306 1042 l 306 850 l 517 850 l 517 718 l 306 718 l 306 0 l 138 0 l 138 718 l 39 718 l 39 850 l 138 850 l 138 976 q 190 1138 138 1092 q 361 1183 243 1185 l 547 1183 l 547 1042 l 324 1042 z "},"g":{"ha":771,"x_min":78,"x_max":693,"o":"m 524 -182 l 524 81 q 474 10 510 33 q 375 -12 438 -12 l 278 -12 q 126 28 174 -12 q 78 175 78 69 l 78 657 q 128 813 78 768 q 297 854 179 857 l 693 850 l 693 -131 q 637 -294 693 -246 q 456 -343 581 -343 l 104 -343 l 104 -201 l 506 -201 q 524 -182 524 -201 m 263 124 l 506 124 q 524 143 524 124 l 524 713 l 263 714 q 244 696 244 714 l 244 143 q 263 124 244 124 z "},"h":{"ha":785,"x_min":89,"x_max":706,"o":"m 503 863 q 657 821 608 863 q 706 674 706 779 l 706 0 l 536 0 l 536 707 q 518 726 536 726 l 275 726 q 257 707 257 726 l 258 0 l 90 0 l 89 1169 l 257 1169 l 257 783 q 406 863 290 863 l 503 863 z "},"i":{"ha":389,"x_min":110,"x_max":279,"o":"m 110 1001 l 110 1157 l 279 1157 l 279 1001 l 110 1001 m 110 0 l 110 850 l 279 850 l 279 0 l 110 0 z "},"ı":{"ha":403,"x_min":115,"x_max":288,"o":"m 115 849 l 288 849 l 288 0 l 115 0 l 115 849 z "},"í":{"ha":403,"x_min":115,"x_max":415,"o":"m 115 849 l 288 849 l 288 0 l 115 0 l 115 849 m 258 956 l 133 956 l 242 1211 l 415 1210 l 258 956 z "},"î":{"ha":403,"x_min":-54,"x_max":446,"o":"m 115 849 l 288 849 l 288 0 l 115 0 l 115 849 m 446 956 l 300 956 l 199 1122 l 86 956 l -54 956 l 113 1203 l 288 1203 l 446 956 z "},"ï":{"ha":403,"x_min":-26,"x_max":436,"o":"m 115 849 l 288 849 l 288 0 l 115 0 l 115 849 m -26 992 l -26 1158 l 125 1158 l 125 992 l -26 992 m 286 992 l 286 1158 l 436 1158 l 436 992 l 286 992 z "},"ì":{"ha":403,"x_min":-12,"x_max":288,"o":"m 115 849 l 288 849 l 288 0 l 115 0 l 115 849 m 157 956 l -12 1210 l 161 1211 l 276 956 l 157 956 z "},"j":{"ha":365,"x_min":-56,"x_max":271,"o":"m 103 1001 l 103 1157 l 271 1157 l 271 1001 l 103 1001 m 103 -182 l 103 850 l 271 850 l 271 -131 q 215 -294 271 -246 q 32 -343 158 -343 l -56 -343 l -56 -201 l 85 -201 q 103 -182 103 -201 z "},"k":{"ha":794,"x_min":104,"x_max":788,"o":"m 104 0 l 104 1169 l 271 1169 l 271 514 l 440 514 q 453 518 450 514 q 460 532 457 522 l 558 850 l 722 850 l 643 589 q 611 501 626 533 q 572 450 596 468 q 636 402 614 438 q 682 297 658 367 l 788 0 l 617 0 l 492 354 q 485 369 489 365 q 472 374 482 374 l 271 374 l 271 0 l 104 0 z "},"l":{"ha":383,"x_min":107,"x_max":276,"o":"m 107 0 l 107 1169 l 276 1169 l 276 0 l 107 0 z "},"m":{"ha":1182,"x_min":82,"x_max":1110,"o":"m 479 863 q 608 838 561 863 q 672 753 656 813 q 831 863 697 863 l 908 863 q 1062 821 1014 863 q 1110 674 1110 779 l 1110 0 l 942 0 l 942 707 q 924 726 942 726 l 700 726 q 682 707 682 726 l 681 701 q 682 674 682 688 l 682 0 l 513 0 l 513 707 q 494 726 513 726 l 268 726 q 250 707 250 726 l 253 0 l 83 0 l 82 850 l 232 850 l 244 764 q 399 863 272 863 l 479 863 z "},"n":{"ha":790,"x_min":94,"x_max":711,"o":"m 510 863 q 663 821 614 863 q 711 674 711 779 l 711 0 l 543 0 l 543 707 q 525 726 543 726 l 282 726 q 263 707 263 726 l 264 0 l 97 0 l 94 850 l 244 850 l 257 764 q 411 863 285 863 l 510 863 z "},"ñ":{"ha":790,"x_min":94,"x_max":711,"o":"m 510 863 q 663 821 614 863 q 711 674 711 779 l 711 0 l 543 0 l 543 707 q 525 726 543 726 l 282 726 q 263 707 263 726 l 264 0 l 97 0 l 94 850 l 244 850 l 257 764 q 411 863 285 863 l 510 863 m 163 994 q 192 1140 163 1100 q 279 1179 221 1179 q 360 1163 322 1179 q 433 1129 399 1146 q 499 1113 468 1113 q 536 1128 526 1113 q 546 1179 546 1144 l 654 1179 q 620 1035 654 1075 q 529 994 586 994 q 448 1011 488 994 q 373 1044 408 1028 q 310 1061 338 1061 q 280 1046 290 1061 q 269 993 269 1031 l 163 994 z "},"o":{"ha":783,"x_min":78,"x_max":706,"o":"m 78 651 q 133 815 78 767 q 315 863 189 863 l 467 863 q 650 815 594 863 q 706 651 706 767 l 706 199 q 650 35 706 83 q 467 -12 594 -12 l 315 -12 q 133 35 189 -12 q 78 199 78 83 l 78 651 m 267 722 q 247 703 247 722 l 247 147 q 267 128 247 128 l 518 128 q 536 147 536 128 l 536 703 q 518 722 536 722 l 267 722 z "},"ó":{"ha":783,"x_min":78,"x_max":706,"o":"m 78 651 q 133 815 78 767 q 315 863 189 863 l 467 863 q 650 815 594 863 q 706 651 706 767 l 706 199 q 650 35 706 83 q 467 -12 594 -12 l 315 -12 q 133 35 189 -12 q 78 199 78 83 l 78 651 m 267 722 q 247 703 247 722 l 247 147 q 267 128 247 128 l 518 128 q 536 147 536 128 l 536 703 q 518 722 536 722 l 267 722 m 453 957 l 328 957 l 436 1213 l 610 1211 l 453 957 z "},"ô":{"ha":783,"x_min":78,"x_max":706,"o":"m 78 651 q 133 815 78 767 q 315 863 189 863 l 467 863 q 650 815 594 863 q 706 651 706 767 l 706 199 q 650 35 706 83 q 467 -12 594 -12 l 315 -12 q 133 35 189 -12 q 78 199 78 83 l 78 651 m 267 722 q 247 703 247 722 l 247 147 q 267 128 247 128 l 518 128 q 536 147 536 128 l 536 703 q 518 722 536 722 l 267 722 m 640 957 l 494 957 l 393 1124 l 281 957 l 140 957 l 307 1204 l 482 1204 l 640 957 z "},"ö":{"ha":783,"x_min":78,"x_max":706,"o":"m 78 651 q 133 815 78 767 q 315 863 189 863 l 467 863 q 650 815 594 863 q 706 651 706 767 l 706 199 q 650 35 706 83 q 467 -12 594 -12 l 315 -12 q 133 35 189 -12 q 78 199 78 83 l 78 651 m 267 722 q 247 703 247 722 l 247 147 q 267 128 247 128 l 518 128 q 536 147 536 128 l 536 703 q 518 722 536 722 l 267 722 m 168 993 l 168 1160 l 319 1160 l 319 993 l 168 993 m 481 993 l 481 1160 l 631 1160 l 631 993 l 481 993 z "},"ò":{"ha":783,"x_min":78,"x_max":706,"o":"m 78 651 q 133 815 78 767 q 315 863 189 863 l 467 863 q 650 815 594 863 q 706 651 706 767 l 706 199 q 650 35 706 83 q 467 -12 594 -12 l 315 -12 q 133 35 189 -12 q 78 199 78 83 l 78 651 m 267 722 q 247 703 247 722 l 247 147 q 267 128 247 128 l 518 128 q 536 147 536 128 l 536 703 q 518 722 536 722 l 267 722 m 351 957 l 182 1211 l 356 1213 l 471 957 l 351 957 z "},"ø":{"ha":783,"x_min":78,"x_max":706,"o":"m 78 651 q 133 815 78 767 q 315 863 189 863 l 467 863 q 546 857 511 863 l 592 954 l 686 954 l 628 831 q 706 651 706 785 l 706 199 q 650 35 706 83 q 467 -12 594 -12 l 315 -12 q 239 -7 272 -12 l 194 -103 l 99 -103 l 156 19 q 78 199 78 65 l 78 651 m 267 722 q 247 703 247 722 l 247 215 l 483 722 l 267 722 m 536 147 l 536 632 l 301 128 l 518 128 q 536 147 536 128 z "},"õ":{"ha":783,"x_min":78,"x_max":706,"o":"m 78 651 q 133 815 78 767 q 315 863 189 863 l 467 863 q 650 815 594 863 q 706 651 706 767 l 706 199 q 650 35 706 83 q 467 -12 594 -12 l 315 -12 q 133 35 189 -12 q 78 199 78 83 l 78 651 m 267 722 q 247 703 247 722 l 247 147 q 267 128 247 128 l 518 128 q 536 147 536 128 l 536 703 q 518 722 536 722 l 267 722 m 144 996 q 174 1141 144 1101 q 261 1181 203 1181 q 342 1164 304 1181 q 415 1131 381 1147 q 481 1114 450 1114 q 518 1130 508 1114 q 528 1181 528 1146 l 636 1181 q 602 1036 636 1076 q 511 996 568 996 q 430 1013 469 996 q 355 1046 390 1029 q 292 1063 319 1063 q 262 1047 272 1063 q 251 994 251 1032 l 144 996 z "},"œ":{"ha":1211,"x_min":78,"x_max":1142,"o":"m 801 -10 q 624 56 668 -10 q 558 3 601 19 q 443 -12 514 -12 l 315 -12 q 133 35 189 -12 q 78 199 78 83 l 78 651 q 133 815 78 767 q 315 863 189 863 l 443 863 q 551 849 510 863 q 617 806 593 836 q 674 850 636 838 q 778 863 713 863 l 922 863 q 1092 819 1042 863 q 1142 660 1142 775 l 1142 328 l 703 328 l 703 150 q 722 132 703 132 l 1121 132 l 1121 -10 l 801 -10 m 722 726 q 703 707 703 726 l 703 450 l 975 450 l 975 707 q 957 726 975 726 l 722 726 m 267 722 q 247 703 247 722 l 247 147 q 267 128 247 128 l 519 128 q 539 147 539 128 l 539 703 q 519 722 539 722 l 267 722 z "},"p":{"ha":793,"x_min":100,"x_max":717,"o":"m 100 -329 l 100 850 l 249 850 l 264 753 q 312 835 275 807 q 417 863 349 863 l 514 863 q 668 821 619 863 q 717 674 717 779 l 717 194 q 666 39 717 82 q 496 -4 615 -4 l 268 -1 l 268 -329 l 100 -329 m 268 707 l 268 136 l 531 133 q 549 151 549 133 l 549 707 q 531 726 549 726 l 288 726 q 268 707 268 726 z "},"þ":{"ha":793,"x_min":100,"x_max":717,"o":"m 100 -329 l 100 1169 l 268 1169 l 268 769 q 417 863 296 863 l 514 863 q 668 821 619 863 q 717 674 717 779 l 717 194 q 666 39 717 82 q 496 -4 615 -4 l 268 -1 l 268 -329 l 100 -329 m 268 707 l 268 136 l 531 133 q 549 151 549 133 l 549 707 q 531 726 549 726 l 288 726 q 268 707 268 726 z "},"q":{"ha":793,"x_min":78,"x_max":693,"o":"m 693 850 l 693 -329 l 524 -329 l 524 81 q 474 10 510 33 q 375 -12 438 -12 l 278 -12 q 126 28 174 -12 q 78 175 78 69 l 78 657 q 128 813 78 768 q 297 854 179 857 l 693 850 m 263 124 l 506 124 q 524 143 524 124 l 524 713 l 263 714 q 244 696 244 714 l 244 143 q 263 124 244 124 z "},"r":{"ha":490,"x_min":94,"x_max":492,"o":"m 492 863 l 492 726 l 282 726 q 263 707 263 726 l 264 0 l 97 0 l 94 850 l 244 850 l 257 764 q 411 863 285 863 l 492 863 z "},"s":{"ha":669,"x_min":56,"x_max":631,"o":"m 71 -4 l 69 132 l 444 132 q 464 150 464 132 l 464 346 q 444 365 464 365 l 276 365 q 106 409 157 365 q 56 564 56 453 l 56 656 q 109 817 56 771 q 281 863 163 864 l 586 863 l 586 721 l 244 722 q 226 703 226 722 l 226 517 q 244 497 226 497 l 411 497 q 581 455 531 497 q 631 300 631 413 l 631 183 q 583 37 631 78 q 429 -4 535 -4 l 71 -4 z "},"ß":{"ha":856,"x_min":39,"x_max":788,"o":"m 788 232 q 720 55 788 117 q 524 -7 653 -7 l 388 -7 l 388 135 l 594 135 q 618 157 618 135 l 618 488 q 594 510 618 510 l 388 510 l 388 647 l 563 647 q 583 653 574 647 q 592 669 592 658 l 592 944 q 569 967 592 967 l 322 967 q 300 944 300 967 l 300 0 l 131 0 l 131 718 l 39 718 l 39 850 l 131 850 l 131 876 q 194 1047 131 986 q 389 1108 258 1108 l 501 1108 q 696 1049 629 1108 q 763 872 763 990 l 763 757 q 672 589 763 639 q 788 403 788 544 l 788 232 z "},"t":{"ha":514,"x_min":39,"x_max":506,"o":"m 506 718 l 307 718 l 307 160 q 325 142 307 142 l 506 142 l 506 0 l 376 0 q 195 49 251 0 q 139 211 139 97 l 139 718 l 39 718 l 39 850 l 139 850 l 139 1067 l 307 1067 l 307 850 l 506 850 l 506 718 z "},"u":{"ha":792,"x_min":81,"x_max":699,"o":"m 282 -12 q 128 28 176 -12 q 81 175 81 69 l 81 850 l 249 850 l 249 143 q 267 124 249 124 l 529 124 l 528 850 l 696 850 l 699 0 l 549 0 l 533 93 q 485 14 522 40 q 381 -12 447 -12 l 282 -12 z "},"ú":{"ha":792,"x_min":81,"x_max":699,"o":"m 282 -12 q 128 28 176 -12 q 81 175 81 69 l 81 850 l 249 850 l 249 143 q 267 124 249 124 l 529 124 l 528 850 l 696 850 l 699 0 l 549 0 l 533 93 q 485 14 522 40 q 381 -12 447 -12 l 282 -12 m 439 957 l 314 957 l 422 1213 l 596 1211 l 439 957 z "},"û":{"ha":792,"x_min":81,"x_max":699,"o":"m 282 -12 q 128 28 176 -12 q 81 175 81 69 l 81 850 l 249 850 l 249 143 q 267 124 249 124 l 529 124 l 528 850 l 696 850 l 699 0 l 549 0 l 533 93 q 485 14 522 40 q 381 -12 447 -12 l 282 -12 m 626 957 l 481 957 l 379 1124 l 267 957 l 126 957 l 293 1204 l 468 1204 l 626 957 z "},"ü":{"ha":792,"x_min":81,"x_max":699,"o":"m 282 -12 q 128 28 176 -12 q 81 175 81 69 l 81 850 l 249 850 l 249 143 q 267 124 249 124 l 529 124 l 528 850 l 696 850 l 699 0 l 549 0 l 533 93 q 485 14 522 40 q 381 -12 447 -12 l 282 -12 m 154 993 l 154 1160 l 306 1160 l 306 993 l 154 993 m 467 993 l 467 1160 l 617 1160 l 617 993 l 467 993 z "},"ù":{"ha":792,"x_min":81,"x_max":699,"o":"m 282 -12 q 128 28 176 -12 q 81 175 81 69 l 81 850 l 249 850 l 249 143 q 267 124 249 124 l 529 124 l 528 850 l 696 850 l 699 0 l 549 0 l 533 93 q 485 14 522 40 q 381 -12 447 -12 l 282 -12 m 338 957 l 168 1211 l 342 1213 l 457 957 l 338 957 z "},"v":{"ha":731,"x_min":8,"x_max":725,"o":"m 375 -8 l 189 0 l 8 850 l 175 850 l 325 124 l 399 124 q 418 143 413 124 l 563 850 l 725 850 l 575 172 q 541 63 561 104 q 483 4 521 21 q 375 -8 446 -12 z "},"w":{"ha":1200,"x_min":90,"x_max":1110,"o":"m 292 -12 q 138 25 186 -12 q 90 168 90 63 l 90 850 l 258 850 l 258 143 q 276 124 258 124 l 499 124 q 517 143 517 124 l 517 850 l 682 850 l 682 143 q 700 124 682 124 l 924 124 q 942 143 942 124 l 940 850 l 1108 850 l 1110 175 q 1062 28 1110 69 q 908 -12 1014 -12 l 781 -12 q 599 90 632 -12 q 418 -12 565 -12 l 292 -12 z "},"x":{"ha":779,"x_min":11,"x_max":772,"o":"m 11 0 l 138 279 q 188 382 165 347 q 247 431 210 417 q 199 481 219 447 q 156 574 179 515 l 42 850 l 211 850 l 346 514 q 352 500 349 504 q 365 496 356 496 l 418 496 q 439 513 433 496 l 575 850 l 739 850 l 622 574 q 581 481 600 514 q 532 431 561 447 q 594 381 572 417 q 646 279 617 346 l 772 0 l 596 0 l 450 339 q 432 357 444 357 l 346 357 q 333 353 336 357 q 326 340 329 349 l 185 0 l 11 0 z "},"y":{"ha":790,"x_min":79,"x_max":696,"o":"m 528 -182 l 528 76 q 379 -12 499 -12 l 281 -12 q 128 28 176 -12 q 79 175 79 69 l 79 850 l 247 850 l 247 143 q 267 124 247 124 l 528 124 l 526 850 l 694 850 l 696 -131 q 640 -294 696 -246 q 458 -343 583 -343 l 107 -343 l 107 -201 l 510 -201 q 528 -182 528 -201 z "},"ý":{"ha":790,"x_min":79,"x_max":696,"o":"m 528 -182 l 528 76 q 379 -12 499 -12 l 281 -12 q 128 28 176 -12 q 79 175 79 69 l 79 850 l 247 850 l 247 143 q 267 124 247 124 l 528 124 l 526 850 l 694 850 l 696 -131 q 640 -294 696 -246 q 458 -343 583 -343 l 107 -343 l 107 -201 l 510 -201 q 528 -182 528 -201 m 439 957 l 314 957 l 422 1213 l 596 1211 l 439 957 z "},"ÿ":{"ha":790,"x_min":79,"x_max":696,"o":"m 528 -182 l 528 76 q 379 -12 499 -12 l 281 -12 q 128 28 176 -12 q 79 175 79 69 l 79 850 l 247 850 l 247 143 q 267 124 247 124 l 528 124 l 526 850 l 694 850 l 696 -131 q 640 -294 696 -246 q 458 -343 583 -343 l 107 -343 l 107 -201 l 510 -201 q 528 -182 528 -201 m 154 993 l 154 1160 l 306 1160 l 306 993 l 154 993 m 467 993 l 467 1160 l 617 1160 l 617 993 l 467 993 z "},"z":{"ha":636,"x_min":24,"x_max":604,"o":"m 594 0 l 167 0 q 60 32 97 0 q 24 133 24 64 l 407 693 q 410 710 414 703 q 394 718 406 718 l 60 718 l 60 850 l 451 850 q 604 701 604 850 l 229 160 q 225 140 222 150 q 239 131 228 131 l 596 131 l 594 0 z "},"ª":{"ha":614,"x_min":60,"x_max":538,"o":"m 236 496 q 101 538 143 496 q 60 679 60 579 l 60 717 q 80 832 60 792 q 144 888 100 872 q 257 904 188 904 l 390 904 l 390 1024 q 371 1043 390 1043 l 96 1040 l 96 1157 l 336 1157 q 459 1140 415 1157 q 520 1083 503 1124 q 538 969 538 1042 l 538 508 l 408 508 l 396 588 q 357 519 386 542 q 269 496 328 496 l 236 496 m 390 621 l 390 799 l 218 799 q 200 781 200 799 l 200 639 q 218 621 200 621 l 390 621 z "},"º":{"ha":657,"x_min":74,"x_max":588,"o":"m 74 956 q 126 1117 74 1071 q 293 1163 178 1163 l 368 1163 q 535 1117 483 1163 q 588 956 588 1071 l 588 697 q 535 542 588 588 q 368 497 483 497 l 293 497 q 126 542 178 497 q 74 697 74 588 l 74 956 m 233 1042 q 217 1024 217 1042 l 217 635 q 233 617 217 617 l 426 617 q 444 635 444 617 l 444 1024 q 426 1042 444 1042 l 233 1042 z "},"π":{"ha":878,"x_min":29,"x_max":850,"o":"m 132 0 l 132 718 l 29 718 l 29 850 l 850 850 l 850 718 l 747 718 l 747 0 l 578 0 l 578 718 l 300 718 l 300 0 l 132 0 z "},"ក":{"ha":950,"x_min":83,"x_max":853,"o":"m 136 644 q 203 713 136 713 l 746 713 q 814 644 814 713 l 814 0 l 644 0 l 644 576 l 306 576 l 306 0 l 136 0 l 136 644 m 150 738 q 105 808 124 767 q 83 883 86 849 l 151 1017 l 403 1017 l 475 944 l 547 1017 l 853 1017 l 808 872 l 546 872 l 475 819 l 404 872 l 188 872 q 208 812 190 842 q 243 764 226 782 l 150 738 z "},"ខ":{"ha":950,"x_min":136,"x_max":814,"o":"m 203 0 q 136 68 136 0 l 136 426 l 582 585 q 644 668 644 608 l 644 881 l 306 881 l 306 722 l 403 722 l 403 622 l 221 622 q 160 647 185 622 q 136 707 136 671 l 136 950 q 206 1017 136 1017 l 744 1017 q 814 950 814 1017 l 814 674 q 789 560 814 607 q 704 493 764 514 l 306 356 l 306 136 l 644 136 l 644 365 l 814 365 l 814 68 q 746 0 814 0 l 203 0 z "},"គ":{"ha":950,"x_min":83,"x_max":853,"o":"m 136 644 q 203 713 136 713 l 746 713 q 814 644 814 713 l 814 0 l 644 0 l 644 576 l 306 576 l 306 271 l 311 271 q 450 361 343 361 l 521 361 l 521 231 l 411 231 q 303 114 303 231 l 303 0 l 136 0 l 136 644 m 150 738 q 105 808 124 767 q 83 883 86 849 l 151 1017 l 403 1017 l 475 944 l 547 1017 l 853 1017 l 808 872 l 546 872 l 475 819 l 404 872 l 188 872 q 208 812 190 842 q 243 764 226 782 l 150 738 z "},"ឃ":{"ha":1419,"x_min":25,"x_max":1339,"o":"m 203 0 q 136 68 136 0 l 136 693 q 54 747 83 708 q 25 849 25 785 q 56 951 25 910 q 136 1015 86 993 l 306 1015 l 306 136 l 625 136 l 625 714 q 558 793 590 744 q 519 882 526 842 l 575 1017 l 850 1017 l 806 872 l 636 872 q 701 791 660 828 q 794 724 743 754 l 794 136 l 1114 136 l 1114 714 q 1047 793 1079 744 q 1008 882 1015 842 l 1064 1017 l 1339 1017 l 1294 872 l 1125 872 q 1190 791 1149 828 q 1283 724 1232 754 l 1283 68 q 1215 0 1283 0 l 829 0 q 768 15 796 0 q 713 74 740 31 l 707 74 q 652 15 681 31 q 590 0 624 0 l 203 0 m 153 942 q 100 847 100 913 q 153 763 100 778 l 153 942 z "},"ង":{"ha":950,"x_min":60,"x_max":814,"o":"m 136 0 l 136 550 l 60 550 l 60 650 l 232 650 q 286 633 267 650 q 306 582 306 617 l 306 183 l 460 350 l 490 350 l 644 183 l 644 682 q 636 722 644 710 q 615 743 628 735 l 367 743 q 111 929 111 743 l 111 1069 l 281 1069 l 281 953 q 376 879 281 879 l 597 879 l 597 1017 l 786 1017 l 786 868 l 715 797 l 715 792 q 775 756 754 771 q 805 723 796 742 q 814 672 814 704 l 814 0 l 644 0 l 475 183 l 306 0 l 136 0 z "},"ច":{"ha":950,"x_min":65,"x_max":853,"o":"m 206 0 q 155 17 174 0 q 136 67 136 35 l 136 714 q 87 794 106 750 q 65 885 68 839 l 119 1017 l 403 1017 l 475 946 l 547 1017 l 853 1017 l 808 872 l 546 872 l 475 819 l 404 872 l 176 872 q 216 792 185 829 q 306 722 247 754 l 306 136 l 644 136 l 644 374 q 544 423 579 382 q 510 526 510 464 q 546 644 510 596 q 647 713 582 693 l 814 713 l 814 67 q 744 0 814 0 l 206 0 m 647 639 q 604 597 621 625 q 588 529 588 569 q 647 446 588 454 l 647 639 z "},"ឆ":{"ha":950,"x_min":21,"x_max":853,"o":"m 139 0 q 52 88 83 39 q 21 203 21 136 q 51 303 21 264 q 136 353 81 343 l 136 714 q 87 794 106 750 q 65 885 68 839 l 119 1017 l 403 1017 l 475 946 l 547 1017 l 853 1017 l 808 872 l 546 872 l 475 819 l 404 872 l 176 872 q 216 792 185 829 q 306 722 247 754 l 306 333 l 644 157 l 644 374 q 544 423 579 382 q 510 526 510 464 q 546 644 510 596 q 647 713 582 693 l 814 713 l 814 0 l 672 0 l 306 189 l 306 0 l 139 0 m 647 639 q 604 597 621 625 q 588 529 588 569 q 647 446 588 454 l 647 639 m 153 281 q 113 253 126 275 q 100 203 100 232 q 111 144 100 176 q 153 85 122 113 l 153 281 z "},"ជ":{"ha":950,"x_min":65,"x_max":814,"o":"m 136 0 l 136 714 q 87 794 106 750 q 65 883 68 838 l 135 1017 l 454 1017 l 647 950 l 647 1069 l 814 1069 l 814 872 q 761 811 814 811 l 647 811 l 463 872 l 176 872 q 306 722 190 786 l 306 183 l 460 350 l 490 350 l 644 183 l 644 713 l 814 713 l 814 0 l 644 0 l 475 183 l 306 0 l 136 0 z "},"ឈ":{"ha":1903,"x_min":136,"x_max":1822,"o":"m 693 0 q 625 68 625 0 l 625 881 l 306 881 l 306 339 q 406 290 371 331 q 440 186 440 249 q 404 68 440 117 q 303 0 368 19 l 136 0 l 136 950 q 203 1017 136 1017 l 726 1017 q 794 950 794 1017 l 794 136 l 1111 136 l 1111 714 q 1044 793 1076 744 q 1006 882 1013 842 l 1061 1017 l 1336 1017 l 1292 872 l 1122 872 q 1188 791 1146 828 q 1281 724 1229 754 l 1281 136 l 1597 136 l 1597 714 q 1531 793 1563 744 q 1492 882 1499 842 l 1547 1017 l 1822 1017 l 1778 872 l 1608 872 q 1674 791 1632 828 q 1767 724 1715 754 l 1767 68 q 1699 0 1767 0 l 1315 0 q 1254 15 1282 0 q 1199 74 1226 31 l 1193 74 q 1138 15 1167 31 q 1076 0 1110 0 l 693 0 m 303 74 q 347 117 331 89 q 363 183 363 144 q 303 267 363 258 l 303 74 z "},"ញ":{"ha":1422,"x_min":74,"x_max":1286,"o":"m 628 0 l 628 872 l 583 872 l 453 797 l 324 872 l 190 872 q 306 726 211 789 l 306 339 q 406 290 371 331 q 440 186 440 249 q 404 68 440 117 q 303 0 368 19 l 136 0 l 136 713 q 94 790 110 751 q 74 882 79 829 l 143 1017 l 324 1017 l 453 926 l 583 1017 l 729 1017 q 797 950 797 1017 l 797 907 l 911 1000 q 931 1012 921 1007 q 956 1017 942 1017 l 1218 1017 q 1286 950 1286 1017 l 1286 0 l 1117 0 l 1117 881 l 951 881 l 797 760 l 797 0 l 628 0 m 303 74 q 347 117 331 89 q 363 183 363 144 q 303 267 363 258 l 303 74 m 1054 -472 q 935 -458 985 -472 q 842 -424 885 -444 q 753 -384 799 -404 q 650 -350 708 -364 q 508 -336 592 -336 l 140 -336 l 168 -194 l 503 -194 q 681 -215 604 -194 q 820 -262 758 -236 q 935 -310 882 -289 q 1040 -331 989 -331 q 1099 -312 1082 -331 q 1117 -254 1117 -294 l 1117 -179 l 983 -179 l 983 -68 l 1286 -68 l 1286 -254 q 1225 -419 1286 -367 q 1054 -472 1164 -472 z "},"ដ":{"ha":950,"x_min":136,"x_max":815,"o":"m 238 700 q 136 782 136 700 l 136 960 q 193 1017 136 1017 l 385 1017 l 385 917 l 300 917 l 300 822 l 576 822 q 646 885 646 822 l 646 1071 l 815 1071 l 815 886 q 618 700 815 700 l 238 700 m 136 0 l 136 603 l 306 603 l 306 183 l 460 350 l 490 350 l 644 183 l 644 603 l 814 603 l 814 0 l 644 0 l 475 183 l 306 0 l 136 0 z "},"ឋ":{"ha":950,"x_min":25,"x_max":869,"o":"m 203 0 q 136 68 136 0 l 136 693 q 54 747 83 708 q 25 849 25 785 q 56 951 25 910 q 136 1015 86 993 l 306 1015 l 306 136 l 644 136 l 644 710 q 562 794 599 743 q 515 896 525 844 l 604 1017 l 624 1017 l 706 1000 l 706 1069 l 869 1069 l 869 949 q 804 872 869 872 l 747 872 l 631 892 q 702 800 650 843 q 814 732 754 757 l 814 68 q 746 0 814 0 l 203 0 m 153 942 q 100 847 100 913 q 153 763 100 778 l 153 942 z "},"ឌ":{"ha":950,"x_min":136,"x_max":814,"o":"m 203 0 q 136 68 136 0 l 136 438 l 582 596 q 644 679 644 619 l 644 878 l 474 789 l 306 878 l 306 722 l 403 722 l 403 622 l 221 622 q 160 647 185 622 q 136 707 136 671 l 136 950 q 203 1017 136 1017 l 306 1017 l 474 919 l 643 1017 l 746 1017 q 814 950 814 1017 l 814 685 q 789 574 814 619 q 704 507 764 528 l 306 369 l 306 132 l 647 303 l 647 399 l 814 399 l 814 0 l 647 0 l 647 168 l 306 0 l 203 0 z "},"ឍ":{"ha":1422,"x_min":74,"x_max":1342,"o":"m 613 0 q 508 189 508 74 q 539 288 508 247 q 631 336 569 329 l 631 872 l 585 872 l 454 797 l 325 872 l 190 872 q 306 726 211 789 l 306 339 q 406 290 371 331 q 440 186 440 249 q 404 68 440 117 q 303 0 368 19 l 136 0 l 136 713 q 94 790 110 751 q 74 882 79 829 l 143 1017 l 325 1017 l 454 926 l 585 1017 l 732 1017 q 800 950 800 1017 l 800 296 l 1117 136 l 1117 713 q 1050 792 1082 743 q 1011 881 1018 840 l 1067 1015 l 1342 1015 l 1297 871 l 1128 871 q 1193 790 1151 826 q 1286 722 1235 753 l 1286 -1 l 1117 -1 l 800 157 l 800 0 l 613 0 m 303 74 q 347 117 331 89 q 363 183 363 144 q 303 267 363 258 l 303 74 m 638 261 q 588 189 588 257 q 638 74 588 118 l 638 261 z "},"ណ":{"ha":1906,"x_min":136,"x_max":1769,"o":"m 625 0 l 625 881 l 306 881 l 306 339 q 406 290 371 331 q 440 186 440 249 q 404 68 440 117 q 303 0 368 19 l 136 0 l 136 950 q 203 1017 136 1017 l 728 1017 q 794 950 794 1017 l 794 186 l 938 340 l 968 340 l 1111 186 l 1111 950 q 1178 1017 1111 1017 l 1703 1017 q 1769 950 1769 1017 l 1769 0 l 1600 0 l 1600 881 l 1281 881 l 1281 0 l 1111 0 l 953 171 l 794 0 l 625 0 m 303 74 q 347 117 331 89 q 363 183 363 144 q 303 267 363 258 l 303 74 z "},"ត":{"ha":950,"x_min":83,"x_max":853,"o":"m 150 738 q 105 808 124 767 q 83 883 86 849 l 151 1017 l 403 1017 l 475 944 l 547 1017 l 853 1017 l 808 872 l 546 872 l 475 819 l 404 872 l 188 872 q 208 812 190 842 q 243 764 226 782 l 150 738 m 644 0 l 644 576 l 306 576 l 306 339 q 406 290 371 331 q 440 186 440 249 q 404 68 440 117 q 303 0 368 19 l 136 0 l 136 644 q 203 713 136 713 l 746 713 q 814 644 814 713 l 814 0 l 644 0 m 303 74 q 347 117 331 89 q 363 183 363 144 q 303 267 363 258 l 303 74 z "},"ថ":{"ha":950,"x_min":65,"x_max":814,"o":"m 203 0 q 136 68 136 0 l 136 714 q 87 794 106 750 q 65 883 68 838 l 135 1017 l 454 1017 l 647 950 l 647 1069 l 814 1069 l 814 872 q 761 811 814 811 l 647 811 l 463 872 l 176 872 q 306 722 190 786 l 306 136 l 644 136 l 644 374 q 544 423 579 382 q 510 526 510 464 q 546 644 510 596 q 647 713 582 693 l 814 713 l 814 68 q 746 0 814 0 l 203 0 m 647 639 q 604 597 621 625 q 588 529 588 569 q 647 446 588 454 l 647 639 z "},"ទ":{"ha":914,"x_min":115,"x_max":793,"o":"m 222 0 q 156 68 156 0 l 156 304 l 322 304 l 322 136 l 603 136 l 603 326 q 598 367 603 354 q 583 388 593 379 l 367 388 q 180 439 244 388 q 115 589 115 490 l 115 950 q 182 1017 115 1017 l 724 1017 q 793 950 793 1017 l 793 740 q 772 692 793 713 q 724 671 751 671 l 542 671 l 542 771 l 624 771 l 624 881 l 285 881 l 285 599 q 315 531 285 556 q 399 507 344 507 l 622 507 l 622 590 l 789 590 l 789 475 l 707 426 l 707 421 q 758 374 747 394 q 769 310 769 354 l 769 68 q 701 0 769 0 l 222 0 z "},"ធ":{"ha":950,"x_min":65,"x_max":853,"o":"m 136 0 l 136 714 q 87 794 106 750 q 65 885 68 839 l 119 1017 l 403 1017 l 475 946 l 547 1017 l 853 1017 l 808 872 l 546 872 l 475 819 l 404 872 l 176 872 q 216 792 185 829 q 306 722 247 754 l 306 174 l 460 336 l 490 336 l 644 174 l 644 374 q 544 423 579 382 q 510 526 510 464 q 546 644 510 596 q 647 713 582 693 l 814 713 l 814 0 l 644 0 l 475 178 l 306 0 l 136 0 m 647 639 q 604 597 621 625 q 588 529 588 569 q 647 446 588 454 l 647 639 z "},"ន":{"ha":956,"x_min":136,"x_max":819,"o":"m 136 0 l 136 392 l 303 392 l 303 286 l 650 133 l 650 386 l 244 511 q 162 564 188 529 q 136 657 136 599 l 136 950 q 206 1017 136 1017 l 749 1017 q 818 950 818 1017 l 818 707 q 794 647 818 671 q 733 622 769 622 l 551 622 l 551 722 l 649 722 l 649 881 l 306 881 l 306 674 q 351 608 306 622 l 819 464 l 819 67 q 750 0 819 0 l 650 0 l 303 151 l 303 0 l 136 0 z "},"ប":{"ha":950,"x_min":31,"x_max":869,"o":"m 203 0 q 136 68 136 0 l 136 714 q 69 793 101 744 q 31 882 38 842 l 86 1017 l 361 1017 l 317 872 l 147 872 q 213 791 171 828 q 306 724 254 754 l 306 136 l 644 136 l 644 714 q 578 793 610 744 q 539 882 546 842 l 594 1017 l 869 1017 l 825 872 l 656 872 q 721 791 679 828 q 814 724 763 754 l 814 68 q 746 0 814 0 l 203 0 z "},"ផ":{"ha":950,"x_min":65,"x_max":814,"o":"m 136 0 l 136 714 q 87 794 106 750 q 65 883 68 838 l 135 1017 l 454 1017 l 647 950 l 647 1069 l 814 1069 l 814 872 q 761 811 814 811 l 647 811 l 463 872 l 176 872 q 306 722 190 786 l 306 164 l 460 324 l 489 324 l 644 164 l 644 374 q 544 423 579 382 q 510 526 510 464 q 546 644 510 596 q 647 713 582 693 l 814 713 l 814 0 l 638 0 l 475 167 l 313 0 l 136 0 m 647 639 q 604 597 621 625 q 588 529 588 569 q 647 446 588 454 l 647 639 z "},"ព":{"ha":950,"x_min":74,"x_max":814,"o":"m 644 0 l 644 872 l 592 872 l 461 797 l 332 872 l 190 872 q 306 726 211 789 l 306 339 q 406 290 371 331 q 440 186 440 249 q 404 68 440 117 q 303 0 368 19 l 136 0 l 136 713 q 94 790 110 751 q 74 882 79 829 l 143 1017 l 332 1017 l 461 926 l 592 1017 l 746 1017 q 814 950 814 1017 l 814 0 l 644 0 m 303 74 q 347 117 331 89 q 363 183 363 144 q 303 267 363 258 l 303 74 z "},"ភ":{"ha":950,"x_min":21,"x_max":853,"o":"m 150 738 q 105 808 124 767 q 83 883 86 849 l 151 1017 l 403 1017 l 475 944 l 547 1017 l 853 1017 l 808 872 l 546 872 l 475 819 l 404 872 l 188 872 q 208 812 190 842 q 243 764 226 782 l 150 738 m 142 0 q 53 68 85 21 q 21 181 21 115 q 52 286 21 246 q 136 336 83 326 l 136 644 q 203 713 136 713 l 746 713 q 814 644 814 713 l 814 0 l 644 0 l 644 576 l 306 576 l 306 0 l 142 0 m 153 264 q 113 237 126 257 q 99 179 99 217 q 153 74 99 107 l 153 264 z "},"ម":{"ha":950,"x_min":31,"x_max":869,"o":"m 203 0 q 136 68 136 0 l 136 714 q 69 793 101 744 q 31 882 38 842 l 86 1017 l 361 1017 l 317 872 l 147 872 q 213 791 171 828 q 306 724 254 754 l 306 536 l 644 536 l 644 714 q 578 793 610 744 q 539 882 546 842 l 594 1017 l 869 1017 l 825 872 l 656 872 q 721 791 679 828 q 814 724 763 754 l 814 68 q 746 0 814 0 l 203 0 m 306 136 l 644 136 l 644 408 l 306 408 l 306 136 z "},"យ":{"ha":1421,"x_min":136,"x_max":1340,"o":"m 203 0 q 136 68 136 0 l 136 1015 l 306 1015 q 386 951 356 993 q 417 849 417 910 q 388 747 417 785 q 306 693 358 708 l 306 136 l 625 136 l 626 597 l 626 714 q 560 793 592 744 q 521 882 528 842 l 576 1017 l 851 1017 l 807 872 l 638 872 q 703 791 661 828 q 796 724 744 754 l 796 136 l 1115 136 l 1115 714 q 1049 793 1081 744 q 1010 882 1017 842 l 1065 1017 l 1340 1017 l 1296 872 l 1126 872 q 1192 791 1150 828 q 1285 724 1233 754 l 1285 68 q 1217 0 1285 0 l 831 0 q 769 15 797 0 q 714 74 742 31 l 708 74 q 653 15 682 31 q 592 0 625 0 l 203 0 m 289 763 q 342 847 342 778 q 289 942 342 913 l 289 763 z "},"រ":{"ha":478,"x_min":36,"x_max":397,"o":"m 176 0 q 74 67 111 21 q 36 181 36 113 q 72 291 36 249 q 172 342 107 333 l 172 714 q 94 794 129 746 q 51 882 58 842 l 107 1017 l 397 1017 l 353 872 l 168 872 q 236 791 192 828 q 342 724 281 754 l 342 0 l 176 0 m 181 269 q 132 243 150 265 q 114 182 114 221 q 181 75 114 110 l 181 269 z "},"ល":{"ha":1422,"x_min":136,"x_max":1342,"o":"m 696 0 q 628 68 628 0 l 628 881 l 306 881 l 306 339 q 406 290 371 331 q 440 186 440 249 q 404 68 440 117 q 303 0 368 19 l 136 0 l 136 950 q 203 1017 136 1017 l 729 1017 q 797 950 797 1017 l 797 136 l 1117 136 l 1117 714 q 1050 793 1082 744 q 1011 882 1018 842 l 1067 1017 l 1342 1017 l 1297 872 l 1128 872 q 1193 791 1151 828 q 1286 724 1235 754 l 1286 68 q 1218 0 1286 0 l 696 0 m 303 74 q 347 117 331 89 q 363 183 363 144 q 303 267 363 258 l 303 74 z "},"វ":{"ha":478,"x_min":36,"x_max":397,"o":"m 174 0 q 74 67 113 19 q 36 183 36 115 q 72 290 36 249 q 172 339 107 331 l 172 710 q 90 794 126 743 q 43 896 53 844 l 132 1017 l 151 1017 l 233 1000 l 233 1069 l 397 1069 l 397 949 q 332 872 397 872 l 275 872 l 158 892 q 230 800 178 843 q 342 732 282 757 l 342 0 l 174 0 m 181 267 q 132 240 150 263 q 114 178 114 218 q 133 116 114 143 q 181 74 153 89 l 181 267 z "},"ឝ":{"ha":950,"x_min":83,"x_max":915,"o":"m 150 738 q 105 808 124 767 q 83 883 86 849 l 151 1017 l 403 1017 l 475 944 l 547 1017 l 853 1017 l 808 872 l 546 872 l 475 819 l 404 872 l 188 872 q 208 812 190 842 q 243 764 226 782 l 150 738 m 557 231 l 557 358 l 644 358 l 644 576 l 306 576 l 306 271 l 311 271 q 449 361 343 361 l 493 361 l 493 231 l 411 231 q 303 114 303 231 l 303 0 l 136 0 l 136 644 q 203 713 136 713 l 746 713 q 814 644 814 713 l 814 358 l 915 358 l 915 231 l 814 231 l 814 0 l 644 0 l 644 231 l 557 231 z "},"ឞ":{"ha":950,"x_min":31,"x_max":931,"o":"m 203 0 q 136 68 136 0 l 136 714 q 69 793 101 744 q 31 882 38 842 l 86 1017 l 361 1017 l 317 872 l 147 872 q 213 791 171 828 q 306 724 254 754 l 306 136 l 644 136 l 644 386 l 490 386 l 490 514 l 644 514 l 644 714 q 578 793 610 744 q 539 882 546 842 l 594 1017 l 869 1017 l 825 872 l 656 872 q 721 791 679 828 q 814 724 763 754 l 814 514 l 931 514 l 931 386 l 814 386 l 814 68 q 746 0 814 0 l 203 0 z "},"ស":{"ha":1419,"x_min":136,"x_max":1339,"o":"m 696 0 q 628 68 628 0 l 628 575 l 306 575 l 306 339 q 406 290 371 331 q 440 186 440 249 q 404 68 440 117 q 303 0 368 19 l 136 0 l 136 644 q 203 711 136 711 l 306 711 q 223 799 256 751 q 178 882 190 846 l 238 1017 l 711 1017 l 667 872 l 308 872 q 378 778 332 822 q 475 711 424 735 l 729 711 q 797 644 797 711 l 797 136 l 1114 136 l 1114 714 q 1047 793 1079 744 q 1008 882 1015 842 l 1064 1017 l 1339 1017 l 1294 872 l 1125 872 q 1190 791 1149 828 q 1283 724 1232 754 l 1283 68 q 1215 0 1283 0 l 696 0 m 303 74 q 347 117 331 89 q 363 183 363 144 q 303 267 363 258 l 303 74 z "},"ហ":{"ha":1422,"x_min":31,"x_max":1286,"o":"m 203 0 q 136 68 136 0 l 136 714 q 69 793 101 744 q 31 882 38 842 l 86 1017 l 361 1017 l 317 872 l 147 872 q 213 791 171 828 q 306 724 254 754 l 306 136 l 625 136 l 625 950 q 693 1017 625 1017 l 1218 1017 q 1286 950 1286 1017 l 1286 0 l 1117 0 l 1117 881 l 794 881 l 794 68 q 726 0 794 0 l 203 0 z "},"ឡ":{"ha":1358,"x_min":115,"x_max":1278,"o":"m 586 -458 l 586 -168 l 506 -168 l 506 -68 l 753 -68 l 753 -287 l 889 -158 l 917 -158 l 1053 -287 l 1053 714 q 986 793 1018 744 q 947 882 954 842 l 1003 1017 l 1278 1017 l 1233 872 l 1064 872 q 1129 791 1088 828 q 1222 724 1171 754 l 1222 -458 l 1053 -458 l 903 -311 l 753 -458 l 586 -458 m 222 0 q 156 68 156 0 l 156 304 l 322 304 l 322 136 l 603 136 l 603 326 q 598 367 603 354 q 583 388 593 379 l 367 388 q 180 439 244 388 q 115 589 115 490 l 115 950 q 182 1017 115 1017 l 724 1017 q 793 950 793 1017 l 793 740 q 772 692 793 713 q 724 671 751 671 l 542 671 l 542 771 l 624 771 l 624 881 l 285 881 l 285 599 q 315 531 285 556 q 399 507 344 507 l 622 507 l 622 590 l 789 590 l 789 475 l 707 426 l 707 421 q 758 374 747 394 q 769 310 769 354 l 769 68 q 701 0 769 0 l 222 0 z "},"អ":{"ha":985,"x_min":35,"x_max":904,"o":"m 175 0 q 72 67 110 21 q 35 181 35 113 q 70 291 35 249 q 171 342 106 333 l 171 714 q 92 794 128 746 q 50 882 57 842 l 106 1017 l 396 1017 l 351 872 l 167 872 q 235 791 190 828 q 340 724 279 754 l 340 569 l 679 569 l 679 714 q 601 794 636 746 q 558 882 565 842 l 614 1017 l 904 1017 l 860 872 l 675 872 q 743 791 699 828 q 849 724 788 754 l 849 0 l 683 0 q 581 67 618 21 q 543 181 543 113 q 578 291 543 249 q 679 342 614 333 l 679 442 l 340 442 l 340 0 l 175 0 m 179 269 q 131 243 149 265 q 113 182 113 221 q 179 75 113 110 l 179 269 m 688 269 q 639 243 657 265 q 621 182 621 221 q 688 75 621 110 l 688 269 z "},"ឥ":{"ha":950,"x_min":101,"x_max":814,"o":"m 169 732 q 116 803 131 765 q 101 883 101 840 l 171 1017 l 454 1017 l 647 950 l 647 1069 l 814 1069 l 814 872 q 761 811 814 811 l 647 811 l 463 872 l 207 872 q 224 815 211 840 q 263 761 236 789 l 169 732 m 644 0 l 644 576 l 306 576 l 306 339 q 406 290 371 331 q 440 186 440 249 q 404 68 440 117 q 303 0 368 19 l 136 0 l 136 644 q 203 713 136 713 l 746 713 q 814 644 814 713 l 814 0 l 644 0 m 303 74 q 347 117 331 89 q 363 183 363 144 q 303 267 363 258 l 303 74 z "},"ឦ":{"ha":1390,"x_min":136,"x_max":1254,"o":"m 692 -475 q 624 -407 624 -475 l 624 -179 l 351 -179 l 351 -258 q 431 -284 403 -258 q 458 -357 458 -310 q 428 -431 458 -404 q 344 -458 399 -458 l 190 -458 l 190 -136 q 258 -68 190 -68 l 717 -68 q 785 -136 785 -68 l 785 -353 l 1085 -353 l 1085 1107 q 1063 1190 1085 1160 q 1000 1219 1040 1219 l 929 1219 l 790 1153 l 696 1153 q 626 1219 626 1153 l 626 1438 l 790 1438 l 790 1282 l 928 1356 l 1004 1356 q 1189 1291 1124 1356 q 1254 1108 1254 1226 l 1254 -407 q 1186 -475 1254 -475 l 692 -475 m 644 0 l 644 881 l 306 881 l 306 339 q 406 290 371 331 q 440 186 440 249 q 404 68 440 117 q 303 0 368 19 l 136 0 l 136 950 q 203 1017 136 1017 l 746 1017 q 814 950 814 1017 l 814 0 l 644 0 m 303 74 q 347 117 331 89 q 363 183 363 144 q 303 267 363 258 l 303 74 m 350 -401 q 397 -357 397 -401 q 350 -312 397 -312 l 350 -401 z "},"ឧ":{"ha":950,"x_min":136,"x_max":814,"o":"m 203 0 q 136 68 136 0 l 136 438 l 582 596 q 644 679 644 619 l 644 881 l 306 881 l 306 722 l 403 722 l 403 622 l 221 622 q 160 647 185 622 q 136 707 136 671 l 136 950 q 203 1017 136 1017 l 746 1017 q 814 950 814 1017 l 814 685 q 789 574 814 619 q 704 507 764 528 l 306 369 l 306 138 l 647 299 l 647 399 l 814 399 l 814 0 l 647 0 l 647 160 l 306 0 l 203 0 z "},"ឨ":{"ha":950,"x_min":136,"x_max":814,"o":"m 136 1153 l 136 1289 l 351 1289 l 475 1215 l 599 1289 l 814 1289 l 814 1153 l 599 1153 l 475 1094 l 351 1153 l 136 1153 m 203 0 q 136 68 136 0 l 136 438 l 582 596 q 644 679 644 619 l 644 881 l 306 881 l 306 722 l 403 722 l 403 622 l 221 622 q 160 647 185 622 q 136 707 136 671 l 136 950 q 203 1017 136 1017 l 746 1017 q 814 950 814 1017 l 814 685 q 789 574 814 619 q 704 507 764 528 l 306 369 l 306 138 l 647 299 l 647 399 l 814 399 l 814 0 l 647 0 l 647 160 l 306 0 l 203 0 z "},"ឩ":{"ha":950,"x_min":136,"x_max":925,"o":"m 203 0 q 136 68 136 0 l 136 438 l 582 596 q 644 679 644 619 l 644 881 l 306 881 l 306 722 l 403 722 l 403 622 l 221 622 q 160 647 185 622 q 136 707 136 671 l 136 950 q 203 1017 136 1017 l 746 1017 q 814 950 814 1017 l 814 685 q 789 574 814 619 q 704 507 764 528 l 306 369 l 306 138 l 547 297 l 547 399 l 703 399 l 703 0 l 547 0 l 547 158 l 306 0 l 203 0 m 781 0 l 781 399 l 925 399 l 925 0 l 781 0 z "},"ឪ":{"ha":950,"x_min":136,"x_max":814,"o":"m 136 1238 q 235 1350 136 1350 l 446 1350 l 631 1264 l 631 1438 l 786 1438 l 786 1200 q 718 1133 786 1133 l 631 1133 l 446 1214 l 289 1214 l 289 1083 l 136 1083 l 136 1238 m 203 0 q 136 68 136 0 l 136 438 l 582 596 q 644 679 644 619 l 644 881 l 306 881 l 306 722 l 403 722 l 403 622 l 221 622 q 160 647 185 622 q 136 707 136 671 l 136 950 q 203 1017 136 1017 l 746 1017 q 814 950 814 1017 l 814 685 q 789 574 814 619 q 704 507 764 528 l 306 369 l 306 138 l 647 299 l 647 399 l 814 399 l 814 0 l 647 0 l 647 160 l 306 0 l 203 0 z "},"ឫ":{"ha":950,"x_min":31,"x_max":869,"o":"m 203 0 q 136 68 136 0 l 136 714 q 69 793 101 744 q 31 882 38 842 l 86 1017 l 361 1017 l 317 872 l 147 872 q 213 791 171 828 q 306 724 254 754 l 306 136 l 644 136 l 644 714 q 578 793 610 744 q 539 882 546 842 l 594 1017 l 869 1017 l 825 872 l 656 872 q 721 791 679 828 q 814 724 763 754 l 814 68 q 746 0 814 0 l 203 0 m 136 -406 l 164 -269 l 567 -269 l 622 -69 l 786 -69 l 724 -294 q 674 -376 710 -347 q 576 -406 638 -406 l 136 -406 z "},"ឬ":{"ha":950,"x_min":31,"x_max":897,"o":"m 203 0 q 136 68 136 0 l 136 714 q 69 793 101 744 q 31 882 38 842 l 86 1017 l 361 1017 l 317 872 l 147 872 q 213 791 171 828 q 306 724 254 754 l 306 136 l 644 136 l 644 714 q 578 793 610 744 q 539 882 546 842 l 594 1017 l 869 1017 l 825 872 l 656 872 q 721 791 679 828 q 814 724 763 754 l 814 68 q 746 0 814 0 l 203 0 m 136 -406 l 164 -269 l 567 -269 l 622 -69 l 786 -69 l 738 -246 q 765 -269 749 -262 q 810 -275 782 -275 l 897 -275 l 897 -406 l 810 -406 q 703 -344 736 -406 q 576 -406 664 -406 l 136 -406 z "},"ឭ":{"ha":950,"x_min":74,"x_max":814,"o":"m 644 0 l 644 872 l 592 872 l 461 797 l 332 872 l 190 872 q 306 726 211 789 l 306 339 q 406 290 371 331 q 440 186 440 249 q 404 68 440 117 q 303 0 368 19 l 136 0 l 136 713 q 94 790 110 751 q 74 882 79 829 l 143 1017 l 332 1017 l 461 926 l 592 1017 l 746 1017 q 814 950 814 1017 l 814 0 l 644 0 m 303 74 q 347 117 331 89 q 363 183 363 144 q 303 267 363 258 l 303 74 m 136 -406 l 164 -269 l 581 -269 l 636 -69 l 800 -69 l 738 -294 q 688 -376 724 -347 q 590 -406 651 -406 l 136 -406 z "},"ឮ":{"ha":950,"x_min":74,"x_max":911,"o":"m 644 0 l 644 872 l 592 872 l 461 797 l 332 872 l 190 872 q 306 726 211 789 l 306 339 q 406 290 371 331 q 440 186 440 249 q 404 68 440 117 q 303 0 368 19 l 136 0 l 136 713 q 94 790 110 751 q 74 882 79 829 l 143 1017 l 332 1017 l 461 926 l 592 1017 l 746 1017 q 814 950 814 1017 l 814 0 l 644 0 m 303 74 q 347 117 331 89 q 363 183 363 144 q 303 267 363 258 l 303 74 m 136 -406 l 164 -269 l 581 -269 l 636 -69 l 800 -69 l 751 -246 q 779 -269 763 -262 q 824 -275 796 -275 l 911 -275 l 911 -406 l 824 -406 q 717 -344 750 -406 q 590 -406 678 -406 l 136 -406 z "},"ឯ":{"ha":950,"x_min":60,"x_max":814,"o":"m 136 0 l 136 463 l 60 463 l 60 563 l 232 563 q 306 494 306 563 l 306 183 l 460 350 l 490 350 l 644 183 l 644 725 q 617 813 644 781 q 538 844 590 844 l 478 844 l 278 783 l 181 783 q 111 850 111 783 l 111 1069 l 278 1069 l 278 913 l 493 981 l 538 981 q 744 915 674 981 q 814 717 814 849 l 814 0 l 644 0 l 475 183 l 306 0 l 136 0 z "},"ឰ":{"ha":950,"x_min":74,"x_max":814,"o":"m 347 -471 q 203 -421 256 -471 q 150 -289 150 -371 l 150 -161 l 603 -25 q 633 -4 622 -18 q 644 40 644 10 l 644 872 l 592 872 l 461 797 l 332 872 l 190 872 q 306 726 211 789 l 306 339 q 406 290 371 331 q 440 186 440 249 q 404 68 440 117 q 303 0 368 19 l 136 0 l 136 713 q 94 790 110 751 q 74 882 79 829 l 143 1017 l 332 1017 l 461 926 l 592 1017 l 746 1017 q 814 950 814 1017 l 814 -4 q 803 -55 814 -32 q 765 -89 793 -78 l 743 -99 l 814 -153 l 814 -303 q 792 -364 814 -342 q 731 -386 771 -386 l 643 -386 l 532 -321 l 531 -321 q 473 -432 521 -393 q 347 -471 425 -471 m 303 74 q 347 117 331 89 q 363 183 363 144 q 303 267 363 258 l 303 74 m 372 -357 q 430 -331 407 -357 q 456 -249 453 -304 l 533 -214 l 656 -283 l 656 -119 l 311 -224 l 311 -297 q 328 -340 311 -324 q 372 -357 344 -357 z "},"ឱ":{"ha":950,"x_min":136,"x_max":829,"o":"m 136 1238 q 235 1350 136 1350 l 581 1350 q 724 1312 669 1350 q 829 1200 779 1274 l 701 1131 q 642 1192 674 1171 q 550 1214 611 1214 l 292 1214 l 292 1083 l 136 1083 l 136 1238 m 203 0 q 136 68 136 0 l 136 438 l 582 596 q 644 679 644 619 l 644 881 l 306 881 l 306 722 l 403 722 l 403 622 l 221 622 q 160 647 185 622 q 136 707 136 671 l 136 950 q 203 1017 136 1017 l 746 1017 q 814 950 814 1017 l 814 685 q 789 574 814 619 q 704 507 764 528 l 306 369 l 306 138 l 647 299 l 647 399 l 814 399 l 814 0 l 647 0 l 647 160 l 306 0 l 203 0 z "},"ឲ":{"ha":964,"x_min":136,"x_max":828,"o":"m 206 0 q 136 67 136 0 l 136 950 q 203 1017 136 1017 l 811 1017 l 767 881 l 306 881 l 306 136 l 658 136 l 658 222 q 631 291 658 271 q 535 314 604 311 l 535 383 l 654 478 l 654 636 l 540 636 l 540 539 l 404 539 l 404 761 l 740 761 q 810 694 810 761 l 810 467 l 681 365 q 796 321 764 353 q 828 242 828 289 l 828 67 q 758 0 828 0 l 206 0 z "},"ឳ":{"ha":950,"x_min":136,"x_max":882,"o":"m 136 1247 q 162 1323 136 1296 q 235 1350 188 1350 l 407 1350 l 603 1256 l 603 1339 q 701 1438 603 1438 l 882 1438 l 854 1310 l 744 1310 l 744 1122 l 607 1122 l 415 1214 l 292 1214 l 292 1083 l 136 1083 l 136 1247 m 203 0 q 136 68 136 0 l 136 438 l 582 596 q 644 679 644 619 l 644 881 l 306 881 l 306 722 l 403 722 l 403 622 l 221 622 q 160 647 185 622 q 136 707 136 671 l 136 950 q 203 1017 136 1017 l 746 1017 q 814 950 814 1017 l 814 685 q 789 574 814 619 q 704 507 764 528 l 306 369 l 306 138 l 647 299 l 647 399 l 814 399 l 814 0 l 647 0 l 647 160 l 306 0 l 203 0 z "},"ា":{"ha":492,"x_min":-158,"x_max":356,"o":"m 186 0 l 186 872 l -158 872 l -117 1017 l 274 1017 q 356 936 356 1017 l 356 0 l 186 0 z "},"ើ":{"ha":1419,"x_min":47,"x_max":1347,"o":"m 306 718 l 306 339 q 406 290 371 331 q 440 186 440 249 q 404 68 440 117 q 303 0 368 19 l 136 0 l 136 706 q 82 784 106 740 q 47 872 58 828 l 111 1017 l 376 1017 l 333 872 l 164 872 q 213 791 175 832 q 306 718 250 750 m 303 74 q 347 117 331 89 q 363 183 363 144 q 303 267 363 258 l 303 74 m 961 781 q 926 794 940 781 q 913 829 913 808 q 926 864 913 850 q 961 878 940 878 q 996 864 982 878 q 1010 829 1010 850 q 996 794 1010 808 q 961 781 982 781 m 1169 713 q 1135 726 1149 713 q 1121 761 1121 740 q 1135 796 1121 782 q 1169 810 1149 810 q 1204 796 1190 810 q 1218 761 1218 782 q 1204 726 1218 740 q 1169 713 1190 713 m 753 713 q 718 726 732 713 q 704 761 704 740 q 718 796 704 782 q 753 810 732 810 q 788 796 774 810 q 801 761 801 782 q 788 726 801 740 q 753 713 774 713 m 624 531 q 589 544 603 531 q 575 579 575 558 q 589 614 575 600 q 624 628 603 628 q 658 614 644 628 q 672 579 672 600 q 658 544 672 558 q 624 531 644 531 m 1299 531 q 1264 544 1278 531 q 1250 579 1250 558 q 1264 614 1250 600 q 1299 628 1278 628 q 1333 614 1319 628 q 1347 579 1347 600 q 1333 544 1347 558 q 1299 531 1319 531 m 626 317 q 592 331 606 317 q 578 365 578 344 q 592 400 578 386 q 626 414 606 414 q 661 400 647 414 q 675 365 675 386 q 661 331 675 344 q 626 317 647 317 m 1296 317 q 1261 331 1275 317 q 1247 365 1247 344 q 1261 400 1247 386 q 1296 414 1275 414 q 1331 400 1317 414 q 1344 365 1344 386 q 1331 331 1344 344 q 1296 317 1317 317 m 761 138 q 726 151 740 138 q 713 186 713 165 q 726 221 713 207 q 761 235 740 235 q 796 221 782 235 q 810 186 810 207 q 796 151 810 165 q 761 138 782 138 m 1161 138 q 1126 151 1140 138 q 1113 186 1113 165 q 1126 221 1113 207 q 1161 235 1140 235 q 1196 221 1182 235 q 1210 186 1210 207 q 1196 151 1210 165 q 1161 138 1182 138 m 961 75 q 926 89 940 75 q 913 124 913 103 q 926 158 913 144 q 961 172 940 172 q 996 158 982 172 q 1010 124 1010 144 q 996 89 1010 103 q 961 75 982 75 m 689 1139 l 689 1300 l 1035 1300 l 1153 1253 l 1153 1438 l 1300 1438 l 1300 1139 l 689 1139 z "},"ឿ":{"ha":442,"x_min":-378,"x_max":306,"o":"m -229 -458 q -297 -390 -297 -458 l -297 -69 l -136 -69 l -136 -331 l 136 -331 l 136 1008 q 111 1093 136 1061 q 48 1139 86 1125 q -31 1153 10 1153 l -378 1153 l -378 1314 l -151 1314 l -151 1439 l -10 1439 l -10 1292 l 104 1240 l 104 1439 l 246 1439 l 246 1314 l 213 1196 q 285 1117 265 1169 q 306 994 306 1065 l 306 -390 q 238 -458 306 -458 l -229 -458 z "},"ៀ":{"ha":440,"x_min":-322,"x_max":306,"o":"m -226 -460 q -297 -394 -297 -460 l -297 -69 l -136 -69 l -136 -332 l 136 -332 l 136 1107 q 114 1190 136 1160 q 51 1219 92 1219 l -19 1219 l -158 1153 l -253 1153 q -322 1219 -322 1153 l -322 1439 l -158 1439 l -158 1282 l -21 1356 l 56 1356 q 240 1291 175 1356 q 306 1108 306 1226 l 306 -394 q 235 -460 306 -460 l -226 -460 z "},"េ":{"ha":490,"x_min":47,"x_max":440,"o":"m 306 718 l 306 339 q 406 290 371 331 q 440 186 440 249 q 404 68 440 117 q 303 0 368 19 l 136 0 l 136 706 q 82 784 106 740 q 47 872 58 828 l 111 1017 l 376 1017 l 333 872 l 164 872 q 213 791 175 832 q 306 718 250 750 m 303 74 q 347 117 331 89 q 363 183 363 144 q 303 267 363 258 l 303 74 z "},"ែ":{"ha":490,"x_min":40,"x_max":440,"o":"m 40 1069 l 75 1197 l 225 1197 l 225 1467 l 383 1467 l 383 1183 q 353 1099 383 1129 q 268 1069 324 1069 l 40 1069 m 306 718 l 306 339 q 406 290 371 331 q 440 186 440 249 q 404 68 440 117 q 303 0 368 19 l 136 0 l 136 706 q 82 784 106 740 q 47 872 58 828 l 111 1017 l 376 1017 l 333 872 l 164 872 q 213 791 175 832 q 306 718 250 750 m 303 74 q 347 117 331 89 q 363 183 363 144 q 303 267 363 258 l 303 74 z "},"ៃ":{"ha":490,"x_min":17,"x_max":440,"o":"m 74 1069 l 103 1178 l 253 1178 l 253 1301 l 143 1269 l 60 1269 q 29 1282 42 1269 q 17 1313 17 1294 l 17 1467 l 164 1467 l 164 1379 l 253 1406 l 326 1406 q 378 1389 361 1406 q 394 1346 394 1372 l 394 1169 q 293 1069 394 1069 l 74 1069 m 306 718 l 306 339 q 406 290 371 331 q 440 186 440 249 q 404 68 440 117 q 303 0 368 19 l 136 0 l 136 706 q 82 784 106 740 q 47 872 58 828 l 111 1017 l 376 1017 l 333 872 l 164 872 q 213 791 175 832 q 306 718 250 750 m 303 74 q 347 117 331 89 q 363 183 363 144 q 303 267 363 258 l 303 74 z "},"ោ":{"ha":440,"x_min":-136,"x_max":306,"o":"m 136 0 l 136 872 l -136 872 l -136 1017 l 238 1017 q 306 950 306 1017 l 306 0 l 136 0 z "},"ៅ":{"ha":440,"x_min":-164,"x_max":306,"o":"m 136 0 l 136 872 l -164 872 l -164 1017 l 129 1017 q 142 1106 142 1056 l 142 1350 l 306 1350 l 306 1140 q 246 1008 306 1049 q 306 908 306 985 l 306 0 l 136 0 z "},"ះ":{"ha":486,"x_min":58,"x_max":428,"o":"m 243 639 q 58 818 58 639 q 243 997 58 997 q 428 818 428 997 q 243 639 428 639 m 243 743 q 307 818 307 743 q 243 893 307 893 q 179 818 179 893 q 243 743 179 743 m 243 0 q 58 179 58 0 q 243 358 58 358 q 428 179 428 358 q 243 0 428 0 m 243 104 q 307 179 307 104 q 243 254 307 254 q 179 179 179 254 q 243 104 179 104 z "},"ៈ":{"ha":311,"x_min":56,"x_max":247,"o":"m 56 761 l 56 953 l 247 953 l 247 761 l 56 761 m 56 69 l 56 261 l 247 261 l 247 69 l 56 69 z "},"ៜ":{"ha":956,"x_min":139,"x_max":817,"o":"m 475 -14 q 296 23 371 -14 q 180 125 221 60 q 139 275 139 190 l 139 324 l 297 324 l 297 288 q 347 167 297 215 q 478 119 396 119 q 605 164 557 119 q 653 276 653 208 q 619 373 653 338 q 531 431 585 408 q 415 474 476 454 l 201 544 q 147 619 147 564 l 147 692 q 207 887 147 826 q 399 947 267 947 l 764 947 l 729 814 l 431 814 q 338 785 367 814 q 308 692 308 757 l 308 650 l 469 596 q 587 555 526 578 q 699 497 647 532 q 784 408 751 463 q 817 274 817 354 q 774 122 817 186 q 654 22 731 57 q 475 -14 578 -14 z "},"¹":{"ha":556,"x_min":39,"x_max":511,"o":"m 511 432 l 74 432 l 74 546 l 250 546 l 250 951 l 97 858 l 39 960 l 260 1101 l 390 1101 l 390 546 l 511 546 l 511 432 z "},"²":{"ha":581,"x_min":64,"x_max":518,"o":"m 153 767 l 360 865 q 375 885 375 874 l 375 974 q 360 988 375 988 l 82 988 l 82 1103 l 372 1107 q 485 1071 451 1110 q 518 967 518 1032 l 518 872 q 497 802 518 826 q 428 754 476 778 l 226 660 q 210 647 214 654 q 207 624 207 639 l 207 546 l 515 546 l 515 432 l 64 432 l 64 642 q 74 703 64 682 q 103 739 83 725 q 153 767 124 753 z "},"³":{"ha":611,"x_min":43,"x_max":500,"o":"m 340 429 l 43 432 l 43 546 l 343 546 q 358 560 358 546 l 358 708 q 343 722 358 722 l 107 722 l 107 833 l 338 833 q 353 847 353 833 l 353 974 q 338 988 353 988 l 47 988 l 47 1103 l 338 1107 q 456 1072 415 1110 q 496 963 496 1035 l 496 882 q 433 778 496 807 q 500 667 500 750 l 500 574 q 459 465 500 503 q 340 429 418 428 z "},"⁴":{"ha":671,"x_min":29,"x_max":617,"o":"m 374 432 l 374 575 l 29 575 l 29 667 l 226 1013 q 261 1067 246 1046 q 299 1097 276 1088 q 363 1107 322 1107 l 513 1104 l 513 689 l 617 689 l 617 575 l 513 575 l 513 432 l 374 432 m 339 981 l 169 689 l 374 689 l 374 990 l 354 990 q 344 988 347 990 q 339 981 342 985 z "},"⁄":{"ha":796,"x_min":18,"x_max":767,"o":"m 767 1114 l 158 -12 l 18 -12 l 628 1114 l 767 1114 z "},"½":{"ha":1376,"x_min":39,"x_max":1313,"o":"m 511 432 l 74 432 l 74 546 l 250 546 l 250 951 l 97 858 l 39 960 l 260 1101 l 390 1101 l 390 546 l 511 546 l 511 432 m 1079 1114 l 471 -12 l 331 -12 l 940 1114 l 1079 1114 m 947 335 l 1154 433 q 1169 453 1169 442 l 1169 542 q 1154 556 1169 556 l 876 556 l 876 671 l 1167 675 q 1279 639 1246 678 q 1313 535 1313 600 l 1313 440 q 1292 370 1313 394 q 1222 322 1271 346 l 1021 228 q 1005 215 1008 222 q 1001 192 1001 207 l 1001 114 l 1310 114 l 1310 0 l 858 0 l 858 210 q 868 272 858 250 q 898 307 878 293 q 947 335 918 321 z "},"¼":{"ha":1419,"x_min":39,"x_max":1365,"o":"m 1122 0 l 1122 143 l 778 143 l 778 235 l 975 581 q 1010 635 994 614 q 1048 665 1025 656 q 1111 675 1071 675 l 1261 672 l 1261 257 l 1365 257 l 1365 143 l 1261 143 l 1261 0 l 1122 0 m 1088 549 l 918 257 l 1122 257 l 1122 558 l 1103 558 q 1093 556 1096 558 q 1088 549 1090 553 m 511 432 l 74 432 l 74 546 l 250 546 l 250 951 l 97 858 l 39 960 l 260 1101 l 390 1101 l 390 546 l 511 546 l 511 432 m 1086 1114 l 478 -12 l 338 -12 l 947 1114 l 1086 1114 z "},"¾":{"ha":1425,"x_min":43,"x_max":1371,"o":"m 340 429 l 43 432 l 43 546 l 343 546 q 358 560 358 546 l 358 708 q 343 722 358 722 l 107 722 l 107 833 l 338 833 q 353 847 353 833 l 353 974 q 338 988 353 988 l 47 988 l 47 1103 l 338 1107 q 456 1072 415 1110 q 496 963 496 1035 l 496 882 q 433 778 496 807 q 500 667 500 750 l 500 574 q 459 465 500 503 q 340 429 418 428 m 1088 1114 l 479 -12 l 339 -12 l 949 1114 l 1088 1114 m 1128 0 l 1128 143 l 783 143 l 783 235 l 981 581 q 1015 635 1000 614 q 1053 665 1031 656 q 1117 675 1076 675 l 1267 672 l 1267 257 l 1371 257 l 1371 143 l 1267 143 l 1267 0 l 1128 0 m 1093 549 l 924 257 l 1128 257 l 1128 558 l 1108 558 q 1099 556 1101 558 q 1093 549 1096 553 z "},"០":{"ha":964,"x_min":136,"x_max":828,"o":"m 206 0 q 136 68 136 0 l 136 950 q 206 1017 136 1017 l 758 1017 q 828 950 828 1017 l 828 68 q 757 0 828 0 l 206 0 m 308 136 l 656 136 l 656 881 l 308 881 l 308 136 z "},"១":{"ha":942,"x_min":114,"x_max":806,"o":"m 249 0 l 290 136 l 636 136 l 636 881 l 283 881 l 283 750 q 388 701 353 742 q 424 597 424 660 q 387 479 424 528 q 281 411 350 431 l 114 411 l 114 950 q 183 1017 114 1017 l 736 1017 q 806 950 806 1017 l 806 68 q 738 0 806 0 l 249 0 m 281 485 q 328 528 310 500 q 346 594 346 556 q 281 678 346 669 l 281 485 z "},"២":{"ha":1169,"x_min":72,"x_max":1033,"o":"m 203 0 q 136 68 136 0 l 136 1006 l 72 1006 l 72 1125 l 238 1125 q 306 1057 306 1125 l 306 136 l 864 136 l 864 886 l 728 817 l 589 886 l 589 714 q 691 665 651 706 q 731 561 731 624 q 697 443 731 492 q 600 375 663 394 l 433 375 l 433 950 q 501 1017 433 1017 l 585 1017 l 726 935 l 868 1017 l 965 1017 q 1033 950 1033 1017 l 1033 68 q 965 0 1033 0 l 203 0 m 586 449 q 635 492 617 464 q 653 558 653 519 q 586 642 653 633 l 586 449 z "},"៣":{"ha":1403,"x_min":136,"x_max":1267,"o":"m 786 0 l 617 0 l 617 882 l 306 882 l 306 339 q 406 290 371 331 q 440 186 440 249 q 404 68 440 117 q 303 0 368 19 l 136 0 l 136 950 q 203 1017 136 1017 l 583 1017 q 647 1003 618 1017 q 699 954 675 989 l 704 954 q 757 1003 728 989 q 821 1017 786 1017 l 1200 1017 q 1267 950 1267 1017 l 1267 0 l 1097 0 l 1097 882 l 786 882 l 786 0 m 303 267 l 303 74 q 347 117 331 89 q 363 183 363 144 q 303 267 363 258 z "},"៤":{"ha":994,"x_min":136,"x_max":899,"o":"m 206 0 q 136 67 136 0 l 136 714 q 211 945 136 874 q 450 1017 286 1017 l 482 1017 l 689 939 l 689 1125 l 847 1125 l 847 872 q 778 806 847 806 l 689 806 l 482 881 l 450 881 q 340 840 374 881 q 306 708 306 799 l 306 133 l 729 133 l 607 336 l 607 488 q 707 601 607 601 l 899 601 l 871 485 l 754 485 l 754 349 l 883 136 l 883 67 q 814 0 883 0 l 206 0 z "},"៥":{"ha":997,"x_min":136,"x_max":899,"o":"m 206 0 q 136 67 136 0 l 136 700 q 145 751 136 732 q 176 784 154 769 q 235 819 197 799 l 235 825 l 164 896 l 164 1017 l 353 1017 l 353 893 l 599 893 q 694 981 694 893 l 694 1125 l 853 1125 l 853 971 q 625 771 853 771 l 335 771 q 314 750 322 763 q 306 710 306 738 l 306 133 l 729 133 l 607 336 l 607 488 q 707 601 607 601 l 899 601 l 871 485 l 754 485 l 754 349 l 883 136 l 883 67 q 814 0 883 0 l 206 0 z "},"៦":{"ha":992,"x_min":136,"x_max":856,"o":"m 203 0 q 136 68 136 0 l 136 507 q 189 560 136 560 l 500 560 l 478 432 l 300 432 l 300 136 l 686 136 l 686 708 q 652 840 686 799 q 542 881 618 881 l 510 881 l 303 807 l 214 807 q 144 874 144 807 l 144 1125 l 303 1125 l 303 939 l 510 1017 l 542 1017 q 781 945 707 1017 q 856 714 856 874 l 856 68 q 788 0 856 0 l 203 0 z "},"៧":{"ha":1267,"x_min":136,"x_max":1131,"o":"m 136 0 l 136 950 q 203 1017 136 1017 l 300 1017 l 469 913 l 639 1017 l 735 1017 q 803 950 803 1017 l 803 125 l 961 125 l 961 1125 l 1131 1125 l 1131 68 q 1064 0 1131 0 l 701 0 q 633 68 633 0 l 633 881 l 469 782 l 306 881 l 306 349 q 413 296 376 339 q 450 186 450 253 q 412 70 450 117 q 306 0 374 24 l 136 0 m 303 75 q 353 117 335 90 q 372 183 372 144 q 353 248 372 224 q 303 276 335 272 l 303 75 z "},"៨":{"ha":997,"x_min":136,"x_max":861,"o":"m 136 0 l 136 714 q 211 945 136 874 q 450 1017 286 1017 l 482 1017 l 689 939 l 689 1125 l 847 1125 l 847 872 q 778 806 847 806 l 689 806 l 482 881 l 450 881 q 340 840 374 881 q 306 708 306 799 l 306 161 l 489 317 l 508 317 l 692 161 l 692 343 q 584 392 621 351 q 547 490 547 432 q 586 601 547 554 q 694 668 625 649 l 861 668 l 861 0 l 692 0 l 499 160 l 306 0 l 136 0 m 694 415 l 694 594 q 644 553 664 581 q 625 493 625 526 q 644 440 625 461 q 694 415 663 419 z "},"៩":{"ha":908,"x_min":122,"x_max":814,"o":"m 192 0 q 122 67 122 0 l 122 472 q 240 608 122 585 l 142 683 l 142 811 q 194 971 142 925 q 372 1017 246 1017 l 494 1017 l 644 939 l 644 1125 l 803 1125 l 803 872 q 733 806 803 806 l 644 806 l 494 881 l 372 881 q 325 864 339 881 q 311 806 311 847 l 311 685 l 397 621 l 726 621 l 699 501 l 344 501 q 292 440 292 501 l 292 131 l 650 131 l 650 258 l 532 258 l 557 364 l 746 364 q 814 296 814 364 l 814 67 q 744 0 814 0 l 192 0 z "},".":{"ha":317,"x_min":76,"x_max":240,"o":"m 76 0 l 76 196 l 240 196 l 240 0 l 76 0 z "},",":{"ha":310,"x_min":71,"x_max":232,"o":"m 232 33 q 205 -81 232 -25 q 129 -186 178 -137 l 74 -142 q 112 -63 99 -101 q 128 3 125 -25 l 71 3 l 71 196 l 232 196 l 232 33 z "},":":{"ha":368,"x_min":103,"x_max":267,"o":"m 103 496 l 103 692 l 267 692 l 267 496 l 103 496 m 103 43 l 103 238 l 267 238 l 267 43 l 103 43 z "},";":{"ha":379,"x_min":103,"x_max":267,"o":"m 103 463 l 103 657 l 267 657 l 267 463 l 103 463 m 267 33 q 240 -80 267 -25 q 163 -185 213 -135 l 107 -136 q 144 -62 132 -99 q 158 3 156 -25 l 103 3 l 103 196 l 267 196 l 267 33 z "},"…":{"ha":1001,"x_min":92,"x_max":910,"o":"m 425 0 l 425 186 l 582 186 l 582 0 l 425 0 m 753 0 l 753 186 l 910 186 l 910 0 l 753 0 m 92 0 l 92 186 l 249 186 l 249 0 l 92 0 z "},"!":{"ha":401,"x_min":128,"x_max":306,"o":"m 167 343 l 128 850 l 128 1118 l 306 1118 l 306 850 l 265 343 l 167 343 m 133 0 l 133 192 l 299 192 l 299 0 l 133 0 z "},"¡":{"ha":397,"x_min":118,"x_max":296,"o":"m 290 850 l 290 658 l 125 658 l 125 850 l 290 850 m 257 507 l 296 0 l 296 -268 l 118 -268 l 118 0 l 158 507 l 257 507 z "},"?":{"ha":640,"x_min":49,"x_max":560,"o":"m 151 292 l 151 399 q 158 455 151 433 q 180 497 164 476 q 226 550 196 518 l 378 708 q 389 724 386 718 q 392 740 392 729 l 392 940 q 374 958 392 958 l 49 958 l 49 1106 l 326 1106 q 503 1056 446 1106 q 560 890 560 1006 l 560 768 q 550 702 560 731 q 519 647 540 674 q 464 582 499 619 l 344 458 q 321 423 326 439 q 314 379 315 407 l 314 292 l 151 292 m 149 0 l 149 192 l 315 192 l 315 0 l 149 0 z "},"¿":{"ha":658,"x_min":99,"x_max":610,"o":"m 510 850 l 510 658 l 343 658 l 343 850 l 510 850 m 507 558 l 507 451 q 501 395 507 417 q 478 353 494 374 q 432 300 463 332 l 281 142 q 269 126 272 132 q 267 110 267 121 l 267 -90 q 285 -108 267 -108 l 610 -108 l 610 -256 l 332 -256 q 156 -205 213 -256 q 99 -40 99 -154 l 99 82 q 108 149 99 121 q 139 204 118 176 q 194 268 160 232 l 314 392 q 338 427 333 411 q 344 471 343 443 l 344 558 l 507 558 z "},"·":{"ha":343,"x_min":83,"x_max":261,"o":"m 83 389 l 83 593 l 261 593 l 261 389 l 83 389 z "},"•":{"ha":511,"x_min":124,"x_max":386,"o":"m 124 547 q 151 626 124 601 q 240 651 179 651 l 269 651 q 358 626 331 651 q 386 547 386 601 l 386 424 q 358 345 386 371 q 269 319 331 319 l 240 319 q 151 345 179 319 q 124 424 124 371 l 124 547 z "},"*":{"ha":628,"x_min":51,"x_max":576,"o":"m 289 944 l 258 1051 l 258 1157 l 367 1157 l 367 1053 l 339 944 l 289 944 m 365 889 l 350 936 l 444 996 l 543 1029 l 576 928 l 476 894 l 365 889 m 149 894 l 51 926 l 83 1028 l 182 996 l 278 936 l 260 889 l 149 894 m 206 657 l 118 719 l 179 804 l 265 876 l 307 847 l 265 742 l 206 657 m 425 658 l 363 742 l 321 849 l 361 876 l 449 804 l 510 721 l 425 658 z "},"#":{"ha":908,"x_min":28,"x_max":881,"o":"m 236 0 l 108 0 l 163 283 l 28 283 l 28 406 l 186 406 l 244 706 l 110 706 l 110 828 l 268 828 l 322 1110 l 447 1110 l 393 828 l 617 828 l 671 1110 l 797 1110 l 743 828 l 881 828 l 881 706 l 721 706 l 664 406 l 799 406 l 799 283 l 640 283 l 586 0 l 458 0 l 513 283 l 290 283 l 236 0 m 314 406 l 536 406 l 593 706 l 371 706 l 314 406 z "},"/":{"ha":746,"x_min":25,"x_max":732,"o":"m 732 1169 l 190 -167 l 25 -167 l 571 1169 l 732 1169 z "},"\\":{"ha":722,"x_min":8,"x_max":714,"o":"m 8 1169 l 176 1169 l 714 -167 l 543 -167 l 8 1169 z "},"(":{"ha":490,"x_min":103,"x_max":456,"o":"m 364 -294 q 103 -61 103 -294 l 103 944 q 364 1179 103 1179 l 456 1179 l 456 1050 l 294 1050 q 276 1031 276 1050 l 276 -147 q 294 -165 276 -165 l 456 -165 l 456 -294 l 364 -294 z "},")":{"ha":490,"x_min":35,"x_max":388,"o":"m 126 -294 l 35 -294 l 35 -165 l 196 -165 q 214 -147 214 -165 l 214 1031 q 196 1050 214 1050 l 35 1050 l 35 1179 l 126 1179 q 388 944 388 1179 l 388 -61 q 126 -294 388 -294 z "},"{":{"ha":550,"x_min":86,"x_max":515,"o":"m 335 610 q 299 490 335 531 q 200 442 264 450 q 299 392 264 432 q 335 274 335 351 l 335 -150 q 354 -168 335 -168 l 515 -168 l 515 -294 l 422 -294 q 161 -61 161 -294 l 161 350 q 142 369 161 369 l 86 369 l 86 513 l 142 513 q 161 533 161 513 l 161 944 q 422 1179 161 1179 l 515 1179 l 515 1053 l 354 1053 q 335 1033 335 1053 l 335 610 z "},"}":{"ha":550,"x_min":35,"x_max":464,"o":"m 215 610 l 215 1033 q 196 1053 215 1053 l 35 1053 l 35 1179 l 128 1179 q 389 944 389 1179 l 389 533 q 408 513 389 513 l 464 513 l 464 369 l 408 369 q 389 350 389 369 l 389 -61 q 128 -294 389 -294 l 35 -294 l 35 -168 l 196 -168 q 215 -150 215 -168 l 215 274 q 251 392 215 351 q 350 442 286 432 q 251 490 286 450 q 215 610 215 531 z "},"[":{"ha":492,"x_min":103,"x_max":447,"o":"m 103 -294 l 103 1179 l 447 1179 l 447 1056 l 274 1056 l 274 -172 l 447 -172 l 447 -294 l 103 -294 z "},"]":{"ha":492,"x_min":44,"x_max":389,"o":"m 389 -294 l 44 -294 l 44 -172 l 218 -172 l 218 1056 l 44 1056 l 44 1179 l 389 1179 l 389 -294 z "},"-":{"ha":558,"x_min":51,"x_max":507,"o":"m 507 428 l 51 428 l 51 565 l 507 565 l 507 428 z "},"­":{"ha":558,"x_min":51,"x_max":507,"o":"m 507 428 l 51 428 l 51 565 l 507 565 l 507 428 z "},"–":{"ha":742,"x_min":35,"x_max":707,"o":"m 707 428 l 35 428 l 35 565 l 707 565 l 707 428 z "},"—":{"ha":1133,"x_min":-1,"x_max":1135,"o":"m 1135 428 l -1 428 l -1 565 l 1135 565 l 1135 428 z "},"_":{"ha":771,"x_min":35,"x_max":738,"o":"m 738 -181 l 35 -181 l 35 -72 l 738 -72 l 738 -181 z "},"‚":{"ha":310,"x_min":71,"x_max":232,"o":"m 232 33 q 205 -81 232 -25 q 129 -186 178 -137 l 74 -142 q 112 -63 99 -101 q 128 3 125 -25 l 71 3 l 71 196 l 232 196 l 232 33 z "},"„":{"ha":526,"x_min":71,"x_max":447,"o":"m 447 40 q 422 -69 447 -15 q 350 -169 396 -122 l 296 -126 q 333 -52 321 -89 q 347 11 346 -15 l 294 11 l 294 194 l 447 194 l 447 40 m 224 40 q 198 -69 224 -15 q 126 -169 172 -122 l 72 -126 q 110 -52 97 -89 q 124 11 122 -15 l 71 11 l 71 194 l 224 194 l 224 40 z "},"“":{"ha":532,"x_min":82,"x_max":461,"o":"m 239 1019 l 239 832 l 82 832 l 82 990 q 108 1101 82 1047 q 182 1204 135 1156 l 236 1160 q 199 1083 211 1121 q 185 1019 186 1046 l 239 1019 m 461 1019 l 461 832 l 304 832 l 304 990 q 331 1101 304 1047 q 404 1204 357 1156 l 458 1160 q 421 1083 433 1121 q 407 1019 408 1046 l 461 1019 z "},"”":{"ha":529,"x_min":68,"x_max":447,"o":"m 447 1026 q 421 915 447 969 q 347 813 394 861 l 293 857 q 331 933 318 896 q 344 997 343 971 l 290 997 l 290 1185 l 447 1185 l 447 1026 m 225 1026 q 199 915 225 969 q 125 813 172 861 l 71 857 q 108 933 96 896 q 122 997 121 971 l 68 997 l 68 1185 l 225 1185 l 225 1026 z "},"‘":{"ha":301,"x_min":82,"x_max":239,"o":"m 239 1019 l 239 832 l 82 832 l 82 990 q 108 1101 82 1047 q 182 1204 135 1156 l 236 1160 q 199 1083 211 1121 q 185 1019 186 1046 l 239 1019 z "},"’":{"ha":301,"x_min":63,"x_max":219,"o":"m 219 1026 q 193 915 219 969 q 119 813 167 861 l 65 857 q 103 933 90 896 q 117 997 115 971 l 63 997 l 63 1185 l 219 1185 l 219 1026 z "},"«":{"ha":717,"x_min":60,"x_max":674,"o":"m 71 463 l 257 740 l 393 740 l 225 456 q 225 428 217 442 l 386 142 l 246 142 l 71 417 q 60 439 61 431 q 71 463 60 447 m 351 463 l 533 740 l 674 740 l 506 456 q 506 428 497 442 l 667 142 l 522 142 l 351 417 q 342 439 342 431 q 351 463 342 447 z "},"»":{"ha":717,"x_min":29,"x_max":643,"o":"m 632 419 l 446 142 l 310 142 l 478 426 q 478 454 486 440 l 317 740 l 457 740 l 632 465 q 643 443 643 451 q 632 419 643 435 m 351 419 l 169 142 l 29 142 l 197 426 q 197 454 206 440 l 36 740 l 181 740 l 351 465 q 362 443 361 451 q 351 419 363 435 z "},"‹":{"ha":449,"x_min":58,"x_max":408,"o":"m 68 463 l 256 740 l 408 740 l 240 456 q 235 442 235 447 q 240 428 235 436 l 403 142 l 244 142 l 68 417 q 58 439 58 431 q 68 463 58 447 z "},"›":{"ha":451,"x_min":43,"x_max":394,"o":"m 383 419 l 196 142 l 43 142 l 211 426 q 217 440 218 435 q 211 454 217 446 l 49 740 l 207 740 l 383 465 q 394 443 393 451 q 383 419 394 435 z "},"\"":{"ha":481,"x_min":63,"x_max":400,"o":"m 142 817 l 63 817 l 63 1185 l 192 1185 l 192 1028 l 142 817 m 347 817 l 269 817 l 269 1185 l 400 1185 l 400 1028 l 347 817 z "},"'":{"ha":281,"x_min":63,"x_max":199,"o":"m 144 815 l 63 815 l 63 1185 l 199 1185 l 199 1028 l 144 815 z "},"។":{"ha":883,"x_min":111,"x_max":747,"o":"m 578 0 l 578 583 q 457 528 540 528 l 181 528 q 111 594 111 528 l 111 949 q 181 1015 111 1015 l 403 1015 l 403 913 l 278 913 l 278 661 l 578 661 l 578 1015 l 747 1015 l 747 0 l 578 0 z "},"៕":{"ha":1178,"x_min":111,"x_max":1042,"o":"m 578 0 l 578 583 q 457 528 540 528 l 181 528 q 111 594 111 528 l 111 949 q 181 1015 111 1015 l 403 1015 l 403 913 l 278 913 l 278 661 l 578 661 l 578 1015 l 747 1015 l 747 0 l 578 0 m 883 0 l 883 1014 l 1042 1014 l 1042 0 l 883 0 z "},"៖":{"ha":586,"x_min":31,"x_max":542,"o":"m 282 658 q 97 838 97 658 q 282 1017 97 1017 q 467 838 467 1017 q 282 658 467 658 m 282 763 q 349 838 349 763 q 282 913 349 913 q 215 838 215 913 q 282 763 215 763 m 31 446 l 31 571 l 542 571 l 542 446 l 31 446 m 282 0 q 97 179 97 0 q 282 358 97 358 q 467 179 467 358 q 282 0 467 0 m 282 104 q 349 179 349 104 q 282 254 349 254 q 215 179 215 254 q 282 104 215 104 z "},"ៗ":{"ha":950,"x_min":136,"x_max":814,"o":"m 210 -206 l 251 -69 l 644 -69 l 644 879 l 475 776 l 306 879 l 306 700 q 412 651 375 692 q 449 547 449 610 q 410 429 449 478 q 303 361 372 381 l 136 361 l 136 950 q 203 1017 136 1017 l 306 1017 l 475 906 l 644 1017 l 747 1017 q 814 950 814 1017 l 814 -137 q 746 -206 814 -206 l 210 -206 m 303 435 q 353 478 335 450 q 371 544 371 506 q 303 628 371 619 l 303 435 z "},"៘":{"ha":3054,"x_min":111,"x_max":2918,"o":"m 578 0 l 578 583 q 457 528 540 528 l 181 528 q 111 594 111 528 l 111 949 q 181 1015 111 1015 l 403 1015 l 403 913 l 278 913 l 278 661 l 578 661 l 578 1015 l 747 1015 l 747 0 l 578 0 m 1515 0 q 1447 68 1447 0 l 1447 881 l 1125 881 l 1125 339 q 1225 290 1190 331 q 1260 186 1260 249 q 1224 68 1260 117 q 1122 0 1188 19 l 956 0 l 956 950 q 1022 1017 956 1017 l 1549 1017 q 1617 950 1617 1017 l 1617 136 l 1936 136 l 1936 714 q 1869 793 1901 744 q 1831 882 1838 842 l 1886 1017 l 2161 1017 l 2117 872 l 1947 872 q 2013 791 1971 828 q 2106 724 2054 754 l 2106 68 q 2038 0 2106 0 l 1515 0 m 1122 74 q 1166 117 1150 89 q 1182 183 1182 144 q 1122 267 1182 258 l 1122 74 m 2749 0 l 2749 583 q 2628 528 2711 528 l 2351 528 q 2282 594 2282 528 l 2282 949 q 2351 1015 2282 1015 l 2574 1015 l 2574 913 l 2449 913 l 2449 661 l 2749 661 l 2749 1015 l 2918 1015 l 2918 0 l 2749 0 z "},"៙":{"ha":975,"x_min":108,"x_max":867,"o":"m 192 158 q 108 242 108 158 l 108 789 q 192 872 108 872 l 783 872 q 867 789 867 872 l 867 242 q 783 158 867 158 l 192 158 m 731 278 l 731 753 l 244 753 l 244 278 l 731 278 m 372 403 l 372 628 l 603 628 l 603 403 l 372 403 z "},"៚":{"ha":1674,"x_min":136,"x_max":1632,"o":"m 204 86 q 136 153 136 86 l 136 822 q 206 889 136 889 l 507 889 q 576 822 576 889 l 576 622 l 456 622 l 456 761 l 306 761 l 306 214 l 564 214 l 738 776 l 875 776 l 992 374 l 1099 721 l 1218 721 l 1315 385 l 1400 596 l 1632 596 l 1606 479 l 1471 479 l 1354 213 l 1240 213 l 1154 517 l 1038 157 l 908 157 l 801 540 l 656 86 l 204 86 z "}," ":{"ha":325,"x_min":0,"x_max":0,"o":""}," ":{"ha":325,"x_min":0,"x_max":0,"o":""},"​":{"ha":0,"x_min":0,"x_max":0,"o":""},"‍":{"ha":0,"x_min":0,"x_max":0,"o":""},"‌":{"ha":0,"x_min":0,"x_max":0,"o":""},"\r":{"ha":325,"x_min":0,"x_max":0,"o":""},"€":{"ha":815,"x_min":61,"x_max":764,"o":"m 357 883 q 338 865 338 883 l 338 675 l 579 675 l 579 572 l 338 572 l 338 478 l 579 478 l 579 375 l 338 375 l 338 175 q 357 157 338 157 l 764 157 l 764 0 l 406 0 q 221 53 281 0 q 161 221 161 107 l 161 375 l 61 375 l 61 478 l 161 478 l 161 572 l 61 572 l 61 675 l 161 675 l 161 819 q 221 988 161 935 q 406 1040 281 1040 l 764 1040 l 764 883 l 357 883 z "},"¢":{"ha":614,"x_min":68,"x_max":576,"o":"m 279 1124 l 415 1124 l 415 971 l 576 971 l 576 831 l 257 831 q 238 813 238 831 l 238 274 q 257 254 238 254 l 576 254 l 576 113 l 415 113 l 415 -35 l 279 -35 l 279 113 q 118 167 168 118 q 68 325 68 217 l 68 760 q 118 917 68 869 q 279 971 168 965 l 279 1124 z "},"¤":{"ha":1028,"x_min":68,"x_max":960,"o":"m 204 668 q 219 764 204 724 l 71 913 l 161 1004 l 307 860 q 446 883 361 883 l 588 883 q 722 861 669 883 l 869 1007 l 960 915 l 811 767 q 828 668 828 726 l 828 418 q 813 322 828 363 l 960 174 l 869 82 l 724 228 q 588 204 671 204 l 446 204 q 306 229 360 204 l 158 82 l 68 174 l 218 325 q 204 418 204 364 l 204 668 m 389 740 q 371 722 371 740 l 371 367 q 389 347 371 347 l 643 347 q 661 367 661 347 l 661 722 q 643 740 661 740 l 389 740 z "},"$":{"ha":838,"x_min":78,"x_max":746,"o":"m 488 614 q 746 386 746 614 l 746 258 q 681 80 746 140 q 493 22 617 19 l 493 -143 l 346 -143 l 346 25 l 100 29 l 100 182 l 544 182 q 567 204 567 182 l 567 435 q 544 457 567 457 l 338 457 q 143 513 208 457 q 78 688 78 569 l 78 801 q 144 980 78 917 q 340 1040 211 1043 l 346 1040 l 346 1210 l 493 1210 l 493 1038 l 711 1033 l 711 882 l 278 882 q 256 858 256 882 l 256 636 q 278 614 256 614 l 488 614 z "},"ƒ":{"ha":690,"x_min":15,"x_max":651,"o":"m 15 -328 l 15 -187 l 168 -187 q 186 -169 186 -187 l 249 583 l 146 583 l 146 714 l 258 714 l 279 976 q 336 1138 288 1092 q 504 1183 385 1185 l 651 1183 l 651 1042 l 465 1042 q 446 1024 447 1042 l 422 714 l 590 714 l 590 583 l 413 583 l 354 -122 q 326 -244 349 -199 q 257 -310 304 -290 q 131 -329 210 -329 l 15 -328 z "},"៛":{"ha":463,"x_min":13,"x_max":454,"o":"m 176 0 q 74 67 111 21 q 36 181 36 113 q 72 291 36 249 q 172 342 107 333 l 172 456 l 13 456 l 13 583 l 172 583 l 172 714 q 94 794 129 746 q 51 882 58 842 l 107 1017 l 397 1017 l 353 872 l 168 872 q 236 791 192 828 q 342 724 281 754 l 342 583 l 454 583 l 454 456 l 342 456 l 342 0 l 176 0 m 181 269 q 132 243 150 265 q 114 182 114 221 q 181 75 114 110 l 181 269 z "},"£":{"ha":751,"x_min":69,"x_max":700,"o":"m 69 0 l 69 153 l 151 153 q 172 174 172 153 l 172 474 l 69 474 l 69 601 l 172 601 l 172 824 q 233 992 172 939 q 419 1044 293 1044 l 688 1044 l 688 889 l 367 889 q 347 869 347 889 l 347 601 l 626 601 l 626 474 l 347 474 l 347 238 q 338 185 347 207 q 307 153 328 163 l 700 153 l 700 0 l 69 0 z "},"₺":{"ha":915,"x_min":60,"x_max":847,"o":"m 178 -8 l 178 357 l 60 314 l 60 414 l 178 457 l 178 553 l 60 510 l 60 610 l 178 654 l 178 1040 l 353 1040 l 353 717 l 585 803 l 585 703 l 353 617 l 353 519 l 585 606 l 585 506 l 353 419 l 353 147 l 651 147 q 669 165 669 147 l 669 446 l 847 446 l 847 210 q 786 42 847 94 q 600 -10 725 -11 l 178 -8 z "},"₽":{"ha":921,"x_min":43,"x_max":849,"o":"m 150 0 l 150 217 l 43 217 l 43 339 l 150 339 l 150 426 l 43 426 l 43 550 l 150 550 l 150 1040 l 590 1047 q 849 811 849 1051 l 849 665 q 789 486 849 546 q 600 426 729 426 l 325 426 l 325 339 l 565 339 l 565 217 l 325 217 l 325 0 l 150 0 m 650 893 l 325 893 l 325 550 l 650 550 q 672 572 672 550 l 672 871 q 650 893 672 893 z "},"¥":{"ha":933,"x_min":44,"x_max":892,"o":"m 146 206 l 146 310 l 378 310 l 378 397 l 146 397 l 146 500 l 271 500 q 254 538 264 515 l 44 1040 l 226 1040 l 421 542 q 443 525 426 525 l 501 525 q 522 542 515 525 l 717 1040 l 892 1040 l 676 536 q 661 500 667 514 l 786 500 l 786 397 l 553 397 l 553 310 l 786 310 l 786 206 l 553 206 l 553 0 l 378 0 l 378 206 l 146 206 z "},"+":{"ha":929,"x_min":94,"x_max":835,"o":"m 399 157 l 399 454 l 94 454 l 94 579 l 399 579 l 399 878 l 531 878 l 531 579 l 835 579 l 835 454 l 531 454 l 531 157 l 399 157 z "},"−":{"ha":929,"x_min":90,"x_max":839,"o":"m 839 454 l 90 454 l 90 579 l 839 579 l 839 454 z "},"×":{"ha":800,"x_min":90,"x_max":711,"o":"m 619 204 l 400 424 l 181 204 l 90 293 l 311 514 l 90 733 l 181 824 l 401 604 l 621 824 l 710 733 l 490 514 l 711 294 l 619 204 z "},"÷":{"ha":869,"x_min":90,"x_max":779,"o":"m 357 724 l 357 910 l 511 910 l 511 724 l 357 724 m 90 444 l 90 569 l 779 569 l 779 444 l 90 444 m 357 106 l 357 292 l 511 292 l 511 106 l 357 106 z "},"=":{"ha":892,"x_min":90,"x_max":794,"o":"m 794 557 l 90 557 l 90 682 l 794 682 l 794 557 m 794 239 l 90 239 l 90 364 l 794 364 l 794 239 z "},"≠":{"ha":883,"x_min":90,"x_max":794,"o":"m 794 239 l 410 239 l 322 36 l 185 36 l 274 239 l 90 239 l 90 364 l 328 364 l 413 557 l 90 557 l 90 682 l 467 682 l 554 883 l 688 883 l 600 682 l 794 682 l 794 557 l 547 557 l 464 364 l 794 364 l 794 239 z "},">":{"ha":811,"x_min":93,"x_max":735,"o":"m 735 469 l 93 151 l 93 296 l 574 522 l 93 747 l 93 894 l 735 576 l 735 469 z "},"<":{"ha":803,"x_min":68,"x_max":710,"o":"m 68 542 l 710 860 l 710 715 l 229 489 l 710 264 l 710 117 l 68 435 l 68 542 z "},"≥":{"ha":813,"x_min":86,"x_max":728,"o":"m 728 488 l 86 197 l 86 340 l 560 540 l 86 740 l 86 885 l 728 596 l 728 488 m 711 38 l 86 38 l 86 163 l 711 163 l 711 38 z "},"≤":{"ha":813,"x_min":86,"x_max":728,"o":"m 86 594 l 728 885 l 728 742 l 251 542 l 728 343 l 728 197 l 86 486 l 86 594 m 728 38 l 92 38 l 92 163 l 728 163 l 728 38 z "},"±":{"ha":929,"x_min":94,"x_max":835,"o":"m 399 263 l 399 525 l 94 525 l 94 650 l 399 650 l 399 913 l 531 913 l 531 650 l 835 650 l 835 525 l 531 525 l 531 263 l 399 263 m 835 38 l 94 38 l 94 163 l 835 163 l 835 38 z "},"≈":{"ha":746,"x_min":67,"x_max":678,"o":"m 67 507 q 102 663 69 614 q 207 713 135 713 q 283 699 243 713 q 364 668 324 686 q 440 637 404 650 q 500 624 475 624 q 547 647 533 624 q 561 714 561 671 l 678 714 q 644 544 678 600 q 531 489 611 489 q 455 502 494 489 q 376 533 415 515 q 302 563 336 550 q 243 576 268 576 q 186 507 190 576 l 67 507 m 67 214 q 99 387 67 333 q 207 440 132 440 q 283 427 243 440 q 364 396 324 414 q 440 365 404 378 q 500 351 475 351 q 545 371 531 351 q 561 424 560 390 l 678 424 q 642 267 676 318 q 531 217 608 217 q 455 230 494 217 q 376 260 415 243 q 302 291 336 278 q 243 304 268 304 q 199 281 213 304 q 185 214 185 257 l 67 214 z "},"~":{"ha":746,"x_min":67,"x_max":678,"o":"m 67 375 q 99 547 67 493 q 207 600 132 600 q 283 587 243 600 q 364 556 324 574 q 440 524 404 538 q 500 511 475 511 q 547 535 533 511 q 561 601 561 558 l 678 601 q 644 432 678 488 q 531 376 611 376 q 455 390 494 376 q 376 420 415 403 q 302 451 336 438 q 243 464 268 464 q 199 440 213 464 q 185 374 185 417 l 67 375 z "},"¬":{"ha":925,"x_min":69,"x_max":836,"o":"m 836 233 l 694 233 l 694 457 l 69 457 l 69 579 l 836 579 l 836 233 z "},"^":{"ha":803,"x_min":78,"x_max":725,"o":"m 454 1169 l 725 615 l 592 615 l 400 1032 l 210 615 l 78 615 l 347 1169 l 454 1169 z "},"∞":{"ha":1340,"x_min":68,"x_max":1272,"o":"m 282 188 q 117 236 165 188 q 68 399 68 285 l 68 553 q 117 717 68 671 q 282 764 165 764 l 438 764 q 529 751 494 764 q 590 710 564 738 q 650 635 617 682 l 678 593 l 711 640 q 765 708 742 681 q 822 750 789 736 q 911 764 856 764 l 1057 764 q 1216 717 1160 764 q 1272 553 1272 671 l 1272 399 q 1216 236 1272 285 q 1057 188 1160 188 l 906 188 q 812 201 846 188 q 753 242 778 214 q 693 315 728 269 l 661 361 l 633 322 q 578 250 603 281 q 522 203 554 219 q 432 188 489 188 l 282 188 m 244 326 l 464 326 q 491 331 485 326 q 507 351 497 336 l 589 468 l 496 604 q 485 619 490 614 q 468 624 479 624 l 244 624 q 224 604 224 624 l 224 346 q 244 326 224 326 m 894 326 l 1094 326 q 1117 346 1117 326 l 1117 604 q 1094 624 1117 624 l 869 624 q 849 618 856 624 q 831 601 842 613 l 750 488 l 840 354 q 863 331 853 336 q 894 326 872 326 z "},"∫":{"ha":614,"x_min":21,"x_max":575,"o":"m 446 1183 l 575 1183 l 575 1026 l 404 1026 q 385 1007 385 1026 l 385 -125 q 328 -292 385 -240 q 151 -343 271 -343 l 21 -343 l 21 -186 l 193 -186 q 211 -167 211 -186 l 211 965 q 269 1132 211 1081 q 446 1183 326 1183 z "},"Ω":{"ha":963,"x_min":54,"x_max":908,"o":"m 54 0 l 54 151 l 174 151 q 97 331 97 204 l 97 893 q 158 1061 97 1008 q 346 1114 219 1114 l 614 1114 q 801 1061 740 1114 q 861 893 861 1008 l 861 331 q 785 151 861 204 l 908 151 l 908 0 l 565 0 l 565 149 l 664 176 q 683 197 683 183 l 683 939 q 664 957 683 957 l 296 957 q 276 939 276 957 l 276 197 q 296 176 276 183 l 394 149 l 394 0 l 54 0 z "},"∆":{"ha":919,"x_min":11,"x_max":907,"o":"m 11 0 l 371 1101 l 554 1101 l 907 0 l 11 0 m 221 151 l 694 151 l 460 913 l 221 151 z "},"∏":{"ha":1001,"x_min":38,"x_max":963,"o":"m 963 950 l 850 950 l 850 0 l 675 0 l 675 950 l 326 950 l 326 0 l 151 0 l 151 950 l 38 950 l 38 1101 l 963 1101 l 963 950 z "},"∑":{"ha":758,"x_min":35,"x_max":708,"o":"m 35 126 l 317 565 l 50 974 l 50 1101 l 708 1101 l 708 949 l 261 949 l 503 569 l 238 153 l 708 153 l 708 0 l 35 0 l 35 126 z "},"√":{"ha":1011,"x_min":35,"x_max":974,"o":"m 422 -75 l 154 699 l 35 699 l 35 850 l 276 850 l 508 150 l 824 1183 l 974 1183 l 588 -75 l 422 -75 z "},"∂":{"ha":883,"x_min":71,"x_max":763,"o":"m 332 -6 q 71 229 71 -6 l 71 440 q 130 615 71 563 q 306 668 189 668 l 424 668 q 533 642 496 668 q 585 563 571 617 l 585 926 q 561 950 585 950 l 126 950 l 126 1101 l 499 1108 q 694 1048 626 1111 q 763 869 763 985 l 763 222 q 697 49 763 104 q 503 -6 632 -6 l 332 -6 m 272 151 l 560 151 q 585 174 585 151 l 585 501 q 565 521 585 521 l 272 521 q 250 499 250 521 l 250 174 q 272 151 250 151 z "},"µ":{"ha":792,"x_min":81,"x_max":699,"o":"m 81 -329 l 81 850 l 249 850 l 249 143 q 267 124 249 124 l 529 124 l 528 850 l 696 850 l 699 0 l 549 0 l 535 90 q 410 -12 514 -12 l 324 -12 q 266 -6 288 -12 q 232 15 244 1 l 246 -329 l 81 -329 z "},"%":{"ha":1296,"x_min":51,"x_max":1244,"o":"m 1025 1114 l 417 -12 l 276 -12 l 886 1114 l 1025 1114 m 51 965 q 88 1075 51 1040 q 210 1110 125 1110 l 354 1110 q 476 1075 439 1110 q 514 965 514 1040 l 518 625 q 478 517 518 553 q 354 482 439 482 l 210 482 q 88 517 125 482 q 51 625 51 553 l 51 965 m 203 989 q 185 972 185 989 l 185 621 q 203 603 185 603 l 363 603 q 381 621 381 603 l 381 972 q 363 989 381 989 l 203 989 m 782 475 q 819 583 782 549 q 940 618 857 618 l 1085 618 q 1207 583 1169 618 q 1244 475 1244 549 l 1244 133 q 1207 26 1244 61 q 1085 -8 1169 -8 l 940 -8 q 819 26 857 -8 q 782 133 782 61 l 782 475 m 935 497 q 915 479 915 497 l 915 129 q 935 111 915 111 l 1093 111 q 1111 129 1111 111 l 1111 479 q 1093 497 1111 497 l 935 497 z "},"‰":{"ha":1864,"x_min":51,"x_max":1813,"o":"m 1025 1114 l 417 -12 l 276 -12 l 886 1114 l 1025 1114 m 51 965 q 88 1075 51 1040 q 210 1110 125 1110 l 354 1110 q 476 1075 439 1110 q 514 965 514 1040 l 518 625 q 478 517 518 553 q 354 482 439 482 l 210 482 q 88 517 125 482 q 51 625 51 553 l 51 965 m 203 989 q 185 972 185 989 l 185 621 q 203 603 185 603 l 363 603 q 381 621 381 603 l 381 972 q 363 989 381 989 l 203 989 m 1349 475 q 1386 583 1349 549 q 1508 618 1424 618 l 1653 618 q 1775 583 1738 618 q 1813 475 1813 549 l 1813 133 q 1775 26 1813 61 q 1653 -8 1738 -8 l 1508 -8 q 1386 26 1424 -8 q 1349 133 1349 61 l 1349 475 m 782 475 q 819 583 782 549 q 940 618 857 618 l 1085 618 q 1207 583 1169 618 q 1244 475 1244 549 l 1244 133 q 1207 26 1244 61 q 1085 -8 1169 -8 l 940 -8 q 819 26 857 -8 q 782 133 782 61 l 782 475 m 1501 497 q 1482 479 1482 497 l 1482 129 q 1501 111 1482 111 l 1661 111 q 1679 129 1679 111 l 1679 479 q 1661 497 1679 497 l 1501 497 m 935 497 q 915 479 915 497 l 915 129 q 935 111 915 111 l 1093 111 q 1111 129 1111 111 l 1111 479 q 1093 497 1111 497 l 935 497 z "},"∕":{"ha":796,"x_min":18,"x_max":767,"o":"m 767 1114 l 158 -12 l 18 -12 l 628 1114 l 767 1114 z "},"∙":{"ha":511,"x_min":124,"x_max":386,"o":"m 124 547 q 151 626 124 601 q 240 651 179 651 l 269 651 q 358 626 331 651 q 386 547 386 601 l 386 424 q 358 345 386 371 q 269 319 331 319 l 240 319 q 151 345 179 319 q 124 424 124 371 l 124 547 z "},"◌":{"ha":906,"x_min":61,"x_max":833,"o":"m 447 781 q 413 794 426 781 q 399 829 399 808 q 413 864 399 850 q 447 878 426 878 q 482 864 468 878 q 496 829 496 850 q 482 794 496 808 q 447 781 468 781 m 656 713 q 621 726 635 713 q 607 761 607 740 q 621 796 607 782 q 656 810 635 810 q 690 796 676 810 q 704 761 704 782 q 690 726 704 740 q 656 713 676 713 m 239 713 q 204 726 218 713 q 190 761 190 740 q 204 796 190 782 q 239 810 218 810 q 274 796 260 810 q 288 761 288 782 q 274 726 288 740 q 239 713 260 713 m 110 531 q 75 544 89 531 q 61 579 61 558 q 75 614 61 600 q 110 628 89 628 q 144 614 131 628 q 158 579 158 600 q 144 544 158 558 q 110 531 131 531 m 785 531 q 750 544 764 531 q 736 579 736 558 q 750 614 736 600 q 785 628 764 628 q 819 614 806 628 q 833 579 833 600 q 819 544 833 558 q 785 531 806 531 m 113 317 q 78 331 92 317 q 64 365 64 344 q 78 400 64 386 q 113 414 92 414 q 147 400 133 414 q 161 365 161 386 q 147 331 161 344 q 113 317 133 317 m 782 317 q 747 331 761 317 q 733 365 733 344 q 747 400 733 386 q 782 414 761 414 q 817 400 803 414 q 831 365 831 386 q 817 331 831 344 q 782 317 803 317 m 247 138 q 213 151 226 138 q 199 186 199 165 q 213 221 199 207 q 247 235 226 235 q 282 221 268 235 q 296 186 296 207 q 282 151 296 165 q 247 138 268 138 m 647 138 q 613 151 626 138 q 599 186 599 165 q 613 221 599 207 q 647 235 626 235 q 682 221 668 235 q 696 186 696 207 q 682 151 696 165 q 647 138 668 138 m 447 75 q 413 89 426 75 q 399 124 399 103 q 413 158 399 144 q 447 172 426 172 q 482 158 468 172 q 496 124 496 144 q 482 89 496 103 q 447 75 468 75 z "},"◊":{"ha":874,"x_min":29,"x_max":844,"o":"m 379 -7 l 29 544 l 388 1107 l 492 1107 l 844 551 l 483 -7 l 379 -7 m 428 157 l 538 329 l 681 542 l 567 715 l 440 940 l 331 761 l 194 558 l 308 386 l 428 157 z "},"@":{"ha":1153,"x_min":113,"x_max":1058,"o":"m 358 -82 q 172 -29 232 -82 q 113 138 113 24 l 113 824 q 172 992 113 939 q 358 1044 232 1044 l 811 1044 q 998 992 938 1044 q 1058 824 1058 939 l 1058 344 q 1024 208 1058 247 q 894 169 989 169 l 814 169 q 713 188 749 169 q 672 253 678 206 q 636 192 663 215 q 558 169 610 169 l 525 169 q 396 209 438 169 q 354 339 354 249 l 354 617 q 402 756 354 714 q 556 796 450 797 l 804 790 l 804 292 q 822 274 804 274 l 904 274 q 922 292 922 274 l 922 908 q 904 928 922 928 l 265 928 q 247 908 247 928 l 247 53 q 265 35 247 35 l 804 35 l 804 -82 l 358 -82 m 507 282 l 653 282 q 666 285 661 282 q 671 301 671 289 l 671 686 l 507 689 q 489 669 489 689 l 489 301 q 507 282 489 282 z "},"&":{"ha":992,"x_min":111,"x_max":944,"o":"m 375 -7 q 179 55 247 -7 q 111 232 111 117 l 111 407 q 217 590 111 544 q 144 656 169 614 q 119 761 119 699 l 119 872 q 381 1108 119 1108 l 550 1108 q 810 872 810 1108 l 810 781 l 632 781 l 632 928 q 610 951 632 951 l 321 951 q 299 928 299 951 l 299 675 q 321 653 299 653 l 524 653 l 524 524 l 313 524 q 290 501 290 524 l 290 174 q 313 151 290 151 l 618 151 q 640 174 640 151 l 640 407 q 701 577 640 522 q 892 632 763 632 l 944 632 l 943 472 l 840 472 q 818 450 818 472 l 818 232 q 751 55 818 117 q 556 -7 683 -7 l 375 -7 z "},"¶":{"ha":908,"x_min":46,"x_max":783,"o":"m 633 0 l 633 956 l 518 956 l 518 0 l 368 0 l 369 547 l 307 547 q 112 611 178 547 q 46 779 46 675 l 46 881 q 112 1051 46 992 q 307 1108 178 1111 l 783 1101 l 783 0 l 633 0 z "},"§":{"ha":788,"x_min":63,"x_max":722,"o":"m 483 -185 l 88 -179 l 88 -28 l 526 -28 q 549 -6 549 -28 l 549 157 q 525 188 549 178 l 211 311 q 126 352 160 331 q 78 411 93 374 q 63 513 63 449 l 63 885 q 120 1051 65 992 q 304 1108 175 1111 l 699 1101 l 699 950 l 260 950 q 238 928 238 950 l 238 767 q 261 735 238 743 l 576 611 q 660 570 628 592 q 707 512 692 549 q 722 410 722 475 l 722 39 q 666 -127 721 -67 q 483 -185 611 -187 m 268 436 l 549 325 l 549 428 q 544 465 549 453 q 518 486 540 478 l 238 599 l 238 496 q 242 457 238 469 q 268 436 247 444 z "},"©":{"ha":892,"x_min":113,"x_max":781,"o":"m 113 944 q 157 1076 113 1039 q 299 1114 201 1114 l 593 1114 q 736 1076 692 1114 q 781 944 781 1039 l 781 450 q 736 318 781 356 q 593 281 692 281 l 299 281 q 157 318 201 281 q 113 450 113 356 l 113 944 m 221 1036 q 204 1021 204 1036 l 204 375 q 221 358 204 358 l 669 358 q 686 375 686 358 l 686 1021 q 669 1036 686 1036 l 221 1036 m 467 422 q 316 461 361 422 q 271 603 271 500 l 271 792 q 316 933 271 894 q 467 972 361 972 l 619 972 l 619 857 l 426 857 q 407 838 407 857 l 407 557 q 426 538 407 538 l 619 538 l 619 422 l 467 422 z "},"®":{"ha":914,"x_min":113,"x_max":833,"o":"m 113 944 q 157 1076 113 1039 q 299 1114 201 1114 l 647 1114 q 790 1076 746 1114 q 833 944 833 1039 l 833 450 q 790 318 833 356 q 647 281 746 281 l 299 281 q 157 318 201 281 q 113 450 113 356 l 113 944 m 221 1036 q 204 1021 204 1036 l 204 375 q 221 358 204 358 l 724 358 q 740 375 740 358 l 740 1021 q 724 1036 740 1036 l 221 1036 m 275 414 l 275 971 l 522 976 q 644 940 604 979 q 685 829 685 901 l 685 774 q 606 635 685 669 q 629 605 619 624 q 649 557 639 586 l 699 414 l 572 414 l 507 604 q 486 619 503 619 l 401 619 l 403 414 l 275 414 m 536 881 l 401 881 l 401 715 l 536 715 q 553 732 553 715 l 553 864 q 536 881 553 881 z "},"™":{"ha":1164,"x_min":25,"x_max":1085,"o":"m 1085 1043 l 1085 426 l 950 426 l 950 886 l 818 635 l 746 635 l 622 874 l 622 426 l 497 426 l 497 1114 l 574 1114 q 615 1105 603 1114 q 640 1072 626 1096 l 790 783 l 964 1114 l 1008 1114 q 1085 1043 1085 1114 m 172 426 l 172 1006 l 25 1006 l 25 1114 l 454 1114 l 454 1006 l 310 1006 l 310 426 l 172 426 z "},"°":{"ha":524,"x_min":47,"x_max":478,"o":"m 47 971 q 85 1079 47 1044 q 207 1114 122 1114 l 317 1114 q 440 1079 401 1114 q 478 971 478 1044 l 478 747 q 440 640 478 675 q 317 604 401 604 l 207 604 q 85 640 122 604 q 47 747 47 675 l 47 971 m 193 1001 q 175 983 175 1001 l 175 736 q 193 717 175 717 l 331 717 q 350 736 350 717 l 350 983 q 331 1001 350 1001 l 193 1001 z "},"|":{"ha":464,"x_min":163,"x_max":301,"o":"m 163 -100 l 163 1169 l 301 1169 l 301 -100 l 163 -100 z "},"¦":{"ha":481,"x_min":171,"x_max":310,"o":"m 171 675 l 171 1169 l 310 1169 l 310 675 l 171 675 m 171 -100 l 171 394 l 310 394 l 310 -100 l 171 -100 z "},"ℓ":{"ha":776,"x_min":17,"x_max":731,"o":"m 422 -12 q 236 40 297 -12 q 175 207 175 93 l 175 257 l 92 201 l 17 333 l 175 440 l 175 963 q 235 1131 175 1078 q 413 1183 294 1183 l 493 1183 q 672 1131 613 1183 q 731 963 731 1078 l 731 735 q 715 651 731 685 q 667 592 699 618 q 590 535 636 565 l 353 376 l 353 163 q 372 144 353 144 l 731 144 l 731 -12 l 422 -12 m 353 1007 l 353 560 l 529 678 q 547 692 542 688 q 551 710 551 697 l 551 1007 q 533 1026 551 1026 l 372 1026 q 353 1007 353 1026 z "},"†":{"ha":699,"x_min":38,"x_max":660,"o":"m 325 875 l 296 982 l 296 1157 l 403 1157 l 404 983 l 375 875 l 325 875 m 38 775 l 38 882 l 196 882 l 303 853 l 303 803 l 194 774 l 38 775 m 506 774 l 397 803 l 397 853 l 504 882 l 660 882 l 660 775 l 506 774 m 315 0 l 296 424 l 296 622 l 325 781 l 375 781 l 406 622 l 406 425 l 385 0 l 315 0 z "},"‡":{"ha":869,"x_min":38,"x_max":660,"o":"m 325 881 l 296 988 l 296 1157 l 403 1157 l 404 989 l 375 881 l 325 881 m 124 779 l 38 807 l 108 886 l 236 881 l 303 843 l 263 801 l 124 779 m 506 779 l 397 808 l 397 857 l 504 886 l 660 886 l 660 779 l 506 779 m 325 360 l 296 486 l 296 660 l 325 785 l 375 785 l 404 658 l 404 486 l 375 360 l 325 360 m 38 258 l 38 365 l 194 367 l 303 339 l 303 288 l 196 258 l 38 258 m 504 258 l 397 288 l 397 339 l 506 367 l 660 365 l 660 258 l 504 258 m 296 -11 l 296 158 l 325 265 l 375 265 l 404 158 l 403 -11 l 296 -11 z "},"℮":{"ha":872,"x_min":78,"x_max":796,"o":"m 440 38 q 588 73 518 38 q 708 169 658 108 l 742 135 q 601 26 683 64 q 436 -12 518 -12 q 249 44 331 -12 q 123 199 168 100 q 78 421 78 297 q 101 581 78 503 q 170 724 124 660 q 286 825 217 788 q 447 863 356 863 q 615 816 535 863 q 745 677 694 769 q 796 444 796 585 l 232 444 l 232 138 q 326 63 268 89 q 440 38 383 38 m 447 813 q 331 789 390 813 q 232 708 272 765 l 232 494 l 632 494 l 632 739 q 548 794 596 776 q 447 813 500 813 z "},"¨":{"ha":626,"x_min":86,"x_max":549,"o":"m 86 993 l 86 1160 l 238 1160 l 238 993 l 86 993 m 399 993 l 399 1160 l 549 1160 l 549 993 l 399 993 z "},"˙":{"ha":297,"x_min":69,"x_max":228,"o":"m 69 989 l 69 1169 l 228 1169 l 228 989 l 69 989 z "},"`":{"ha":518,"x_min":57,"x_max":346,"o":"m 226 957 l 57 1211 l 231 1213 l 346 957 l 226 957 z "},"´":{"ha":507,"x_min":108,"x_max":390,"o":"m 233 957 l 108 957 l 217 1213 l 390 1211 l 233 957 z "},"˝":{"ha":671,"x_min":96,"x_max":625,"o":"m 217 957 l 96 957 l 201 1213 l 369 1211 l 217 957 m 465 957 l 344 957 l 454 1213 l 625 1211 l 465 957 z "},"ˆ":{"ha":667,"x_min":79,"x_max":579,"o":"m 579 957 l 433 957 l 332 1124 l 219 957 l 79 957 l 246 1204 l 421 1204 l 579 957 z "},"ˇ":{"ha":667,"x_min":88,"x_max":588,"o":"m 88 1214 l 233 1214 l 335 1047 l 447 1214 l 588 1214 l 421 967 l 246 967 l 88 1214 z "},"˘":{"ha":603,"x_min":97,"x_max":535,"o":"m 210 1186 q 229 1101 210 1131 q 322 1071 249 1071 q 408 1101 390 1071 q 426 1186 426 1131 l 535 1186 q 490 1017 535 1068 q 322 965 446 965 q 184 988 233 965 q 116 1060 135 1011 q 97 1186 97 1108 l 210 1186 z "},"˚":{"ha":596,"x_min":136,"x_max":474,"o":"m 301 926 q 171 966 206 926 q 136 1093 136 1006 q 171 1220 136 1183 q 301 1257 206 1257 q 437 1220 400 1257 q 474 1093 474 1183 q 437 966 474 1006 q 301 926 400 926 m 301 1004 q 370 1025 354 1004 q 386 1093 386 1046 q 370 1163 386 1146 q 301 1181 354 1181 q 238 1163 251 1181 q 224 1093 224 1146 q 238 1025 224 1046 q 301 1004 251 1004 z "},"˜":{"ha":689,"x_min":94,"x_max":586,"o":"m 94 996 q 124 1141 94 1101 q 211 1181 153 1181 q 292 1164 254 1181 q 365 1131 331 1147 q 431 1114 400 1114 q 468 1130 458 1114 q 478 1181 478 1146 l 586 1181 q 552 1036 586 1076 q 461 996 518 996 q 380 1013 419 996 q 305 1046 340 1029 q 242 1063 269 1063 q 212 1047 222 1063 q 201 994 201 1032 l 94 996 z "},"¯":{"ha":628,"x_min":86,"x_max":542,"o":"m 542 1001 l 86 1001 l 86 1124 l 542 1124 l 542 1001 z "},"¸":{"ha":465,"x_min":96,"x_max":381,"o":"m 272 -179 q 260 -168 272 -168 l 117 -168 l 157 21 l 240 8 l 224 -78 l 242 -78 q 344 -102 308 -78 q 381 -189 381 -126 l 381 -226 q 226 -365 381 -365 l 96 -365 l 96 -265 l 260 -265 q 272 -253 272 -265 l 272 -179 z "},"˛":{"ha":571,"x_min":172,"x_max":461,"o":"m 347 -365 q 218 -340 264 -365 q 172 -240 172 -314 l 172 -201 q 183 -135 172 -161 q 218 -86 193 -108 l 325 10 l 431 0 l 321 -131 q 309 -144 311 -140 q 307 -160 307 -149 l 307 -237 q 318 -250 307 -250 l 461 -250 l 461 -365 l 347 -365 z "},"ិ":{"ha":0,"x_min":-750,"x_max":-139,"o":"m -750 1139 l -750 1300 l -308 1300 l -139 1200 l -139 1139 l -750 1139 z "},"ី":{"ha":0,"x_min":-750,"x_max":-139,"o":"m -750 1139 l -750 1300 l -404 1300 l -286 1253 l -286 1438 l -139 1438 l -139 1139 l -750 1139 z "},"ឹ":{"ha":0,"x_min":-761,"x_max":-139,"o":"m -139 1257 q -261 1139 -139 1139 l -761 1139 l -761 1300 l -493 1300 l -472 1293 l -472 1319 q -426 1417 -472 1381 q -306 1453 -381 1453 q -185 1417 -231 1453 q -139 1319 -139 1381 l -139 1257 m -285 1236 q -250 1281 -250 1236 l -250 1308 q -265 1345 -250 1332 q -306 1358 -281 1358 q -346 1345 -331 1358 q -361 1308 -361 1332 l -361 1260 l -285 1236 z "},"ឺ":{"ha":0,"x_min":-750,"x_max":-139,"o":"m -750 1139 l -750 1300 l -544 1300 l -544 1439 l -397 1439 l -397 1290 l -294 1263 l -294 1439 l -139 1439 l -139 1139 l -750 1139 z "},"ុ":{"ha":0,"x_min":-381,"x_max":-139,"o":"m -300 -458 l -300 -169 l -381 -169 l -381 -69 l -219 -69 q -139 -142 -139 -69 l -139 -458 l -300 -458 z "},"ូ":{"ha":0,"x_min":-547,"x_max":-139,"o":"m -479 -458 q -547 -390 -547 -458 l -547 -69 l -400 -69 l -400 -347 l -294 -347 l -294 -69 l -139 -69 l -139 -390 q -206 -458 -139 -458 l -479 -458 z "},"ួ":{"ha":0,"x_min":-575,"x_max":-139,"o":"m -575 -458 l -575 -69 l -428 -69 l -428 -301 l -364 -235 l -350 -235 l -286 -301 l -286 -69 l -139 -69 l -139 -458 l -268 -458 l -357 -358 l -446 -458 l -575 -458 z "},"ំ":{"ha":0,"x_min":-622,"x_max":-256,"o":"m -439 1125 q -622 1289 -622 1125 q -439 1453 -622 1453 q -256 1289 -256 1453 q -439 1125 -256 1125 m -439 1219 q -381 1289 -381 1219 q -439 1358 -381 1358 q -497 1289 -497 1358 q -439 1219 -497 1219 z "},"៉":{"ha":0,"x_min":-556,"x_max":-139,"o":"m -240 1139 l -292 1306 l -292 1439 l -139 1439 l -139 1139 l -240 1139 m -504 1139 l -556 1306 l -556 1439 l -403 1439 l -403 1139 l -504 1139 z "},"៊":{"ha":0,"x_min":-839,"x_max":-139,"o":"m -561 1083 l -561 1089 l -526 1139 l -839 1139 l -839 1267 l -554 1267 l -493 1186 l -464 1229 q -375 1267 -439 1267 l -139 1267 l -175 1139 l -376 1139 l -415 1083 l -561 1083 z "},"់":{"ha":0,"x_min":-294,"x_max":-139,"o":"m -243 1139 l -294 1306 l -294 1439 l -139 1439 l -139 1139 l -243 1139 z "},"៌":{"ha":0,"x_min":-694,"x_max":-139,"o":"m -475 1239 l -475 1233 l -337 1247 l -139 1247 l -178 1125 l -694 1125 l -694 1233 q -579 1277 -636 1250 q -486 1344 -522 1304 q -458 1439 -450 1385 l -292 1439 q -337 1319 -283 1371 q -475 1239 -390 1267 z "},"៍":{"ha":0,"x_min":-661,"x_max":-139,"o":"m -578 1139 q -643 1155 -625 1139 q -661 1206 -661 1171 l -661 1283 q -494 1439 -661 1439 q -408 1422 -444 1439 q -340 1356 -372 1404 l -335 1356 q -306 1447 -328 1417 q -249 1494 -283 1476 l -139 1407 q -233 1250 -228 1329 l -343 1250 q -394 1309 -367 1293 q -454 1325 -422 1325 q -514 1269 -514 1325 l -514 1225 l -418 1225 l -440 1139 l -578 1139 z "},"៎":{"ha":0,"x_min":-660,"x_max":-224,"o":"m -506 1125 l -506 1264 l -567 1229 l -660 1229 l -660 1349 l -506 1349 l -506 1453 l -378 1453 l -378 1314 l -317 1349 l -224 1349 l -224 1229 l -378 1229 l -378 1125 l -506 1125 z "},"៏":{"ha":0,"x_min":-622,"x_max":-139,"o":"m -569 1139 q -622 1192 -622 1139 l -622 1358 q -604 1421 -622 1403 q -551 1439 -586 1439 l -403 1439 l -286 1425 l -286 1494 l -139 1494 l -139 1404 q -210 1333 -139 1333 l -475 1333 l -475 1228 l -381 1278 l -286 1228 l -286 1278 l -139 1278 l -139 1192 q -192 1139 -139 1139 l -272 1139 l -381 1199 l -489 1139 l -569 1139 z "},"័":{"ha":0,"x_min":-789,"x_max":-139,"o":"m -625 1139 q -749 1168 -710 1139 q -789 1254 -789 1197 l -789 1367 q -717 1439 -789 1439 l -512 1439 l -544 1347 l -631 1347 l -631 1294 q -620 1256 -631 1268 q -581 1244 -610 1244 l -404 1244 l -307 1467 l -139 1467 l -262 1199 q -303 1152 -278 1165 q -381 1139 -329 1139 l -625 1139 z "},"៑":{"ha":0,"x_min":-778,"x_max":-106,"o":"m -778 1139 l -778 1267 l -106 1267 l -133 1139 l -778 1139 z "},"្":{"ha":0,"x_min":-569,"x_max":-139,"o":"m -418 -458 l -418 -319 l -569 -319 l -569 -208 l -418 -208 l -418 -69 l -290 -69 l -290 -208 l -139 -208 l -139 -319 l -290 -319 l -290 -458 l -418 -458 z "},"៓":{"ha":0,"x_min":-500,"x_max":-139,"o":"m -449 1139 q -485 1153 -471 1139 q -500 1190 -500 1168 l -500 1340 q -485 1377 -500 1363 q -449 1392 -471 1392 l -190 1392 q -153 1377 -168 1392 q -139 1340 -139 1363 l -139 1190 q -153 1153 -139 1168 q -190 1139 -168 1139 l -449 1139 m -386 1222 l -253 1222 l -253 1308 l -386 1308 l -386 1222 z "},"៝":{"ha":0,"x_min":-783,"x_max":-139,"o":"m -747 1097 l -756 1097 l -783 1203 q -652 1278 -732 1256 q -475 1300 -572 1300 l -447 1300 q -269 1278 -349 1300 q -139 1203 -190 1256 l -167 1097 l -175 1097 q -292 1149 -226 1132 q -440 1167 -357 1167 l -482 1167 q -747 1097 -646 1167 z "},"\u0000":{"ha":0,"x_min":0,"x_max":0,"o":""}}}
